<?xml version="1.0" standalone="no"?>
<!DOCTYPE svg PUBLIC "-//W3C//DTD SVG 20010904//EN"
 "http://www.w3.org/TR/2001/REC-SVG-20010904/DTD/svg10.dtd">
<svg version="1.0" xmlns="http://www.w3.org/2000/svg"
 width="697.000000pt" height="465.000000pt" viewBox="0 0 697.000000 465.000000"
 preserveAspectRatio="xMidYMid meet">

<g transform="translate(0.000000,465.000000) scale(0.100000,-0.100000)"
fill="#000000" stroke="none">
<path d="M0 3653 l0 -998 63 1 c104 3 101 2 87 20 -11 13 -10 16 8 21 12 3 23
10 24 17 0 6 2 22 4 36 5 41 28 100 39 100 6 0 18 17 27 38 l17 37 2 -100 c1
-55 4 -81 6 -57 2 23 8 42 13 42 10 0 6 -103 -5 -119 -3 -5 -8 -97 -11 -203
-4 -121 -10 -196 -17 -200 -7 -4 -7 -11 2 -22 8 -10 9 -16 3 -16 -6 0 -13 -10
-15 -22 l-4 -23 -2 23 c-1 29 -28 29 -34 0 -2 -13 -5 3 -6 35 -1 59 -13 72
-36 40 -9 -12 -9 -25 -2 -50 9 -28 8 -36 -4 -44 -11 -7 -11 -9 4 -9 15 0 18
-8 16 -51 -3 -50 -19 -81 -19 -37 -1 22 -1 22 -15 4 -14 -19 -15 -18 -16 10
-1 26 -2 25 -11 -11 -5 -22 -7 -50 -5 -62 4 -21 0 -23 -37 -23 -30 0 -37 3
-26 10 11 7 11 10 2 10 -7 0 -10 5 -7 11 4 6 13 8 21 5 11 -4 12 -1 4 13 -7
14 -6 22 4 31 12 9 15 6 19 -17 2 -15 5 -3 5 27 1 39 -1 51 -8 40 -8 -13 -10
-12 -10 3 0 9 -8 17 -17 17 -10 0 -28 3 -41 6 l-23 7 2 -121 2 -121 51 5 c28
3 70 7 93 9 38 4 44 2 56 -23 7 -15 19 -26 25 -24 7 1 12 -2 12 -8 0 -5 10
-10 23 -10 12 0 41 -9 64 -19 36 -17 44 -17 53 -5 15 17 15 -10 6 429 -4 204
-8 412 -9 463 0 50 -4 92 -9 92 -12 0 -10 99 2 113 6 7 16 20 23 30 11 15 20
16 102 6 50 -6 98 -15 107 -20 9 -5 27 -9 39 -9 12 0 38 -14 58 -30 54 -46 56
-47 79 -54 12 -4 19 -13 16 -20 -5 -14 29 -41 61 -48 17 -4 16 -6 -7 -12 -37
-11 -35 -21 5 -32 27 -8 33 -15 35 -43 2 -18 -1 -38 -7 -44 -8 -8 -11 -7 -11
2 0 11 -3 11 -15 1 -9 -7 -14 -19 -11 -27 4 -9 1 -11 -5 -7 -7 4 -10 1 -7 -7
3 -8 17 -14 31 -14 20 1 27 -4 27 -17 0 -10 -7 -21 -15 -23 -46 -15 -50 -19
-22 -23 31 -4 36 -18 8 -27 -29 -9 -35 -36 -10 -42 19 -5 19 -7 -8 -35 -27
-29 -27 -29 -5 -34 17 -5 20 -10 12 -24 -5 -9 -7 -20 -3 -23 3 -4 -2 -9 -11
-13 -17 -7 -24 -74 -7 -74 6 0 6 -12 1 -31 -6 -19 -6 -38 0 -49 5 -9 9 -41 8
-70 0 -38 5 -57 16 -66 20 -14 21 -44 2 -44 -22 0 -28 -31 -11 -50 11 -12 13
-20 6 -25 -23 -13 16 -33 65 -32 27 0 143 -19 257 -44 l209 -44 -44 -18 c-61
-27 -271 -70 -345 -71 -35 0 -59 -4 -56 -10 4 -5 2 -6 -4 -3 -5 3 -52 7 -104
8 -52 1 -114 5 -139 9 -77 14 -98 -27 -41 -78 l26 -23 -37 5 c-35 4 -102 52
-93 66 2 3 -10 14 -26 24 -23 14 -41 16 -75 11 -24 -3 -44 -12 -44 -18 0 -7
-5 -29 -11 -49 -8 -30 -15 -38 -32 -37 -12 0 -16 3 -9 6 6 2 12 9 12 15 0 7
-17 9 -45 6 -35 -4 -47 -2 -54 11 -8 14 -12 13 -35 -8 -32 -30 -32 -38 -4 -62
11 -11 18 -19 13 -19 -4 0 -2 -7 5 -15 11 -13 8 -15 -13 -15 -27 0 -52 -30
-44 -53 11 -30 -13 -47 -68 -47 -52 0 -55 1 -55 25 0 17 -6 25 -16 25 -9 0
-23 8 -30 17 -11 15 -13 -113 -14 -769 l0 -788 1640 0 c1468 0 1640 2 1640 15
0 13 4 14 20 5 11 -6 20 -7 20 -3 0 4 5 2 12 -5 8 -8 51 -12 129 -12 l116 0
-8 47 c-12 63 -17 124 -22 283 -2 74 -2 94 0 44 l4 -91 142 30 c198 41 184 33
181 106 -2 34 1 61 6 61 6 0 10 -24 10 -54 0 -60 4 -64 67 -60 24 1 41 -2 38
-6 -3 -4 2 -10 9 -13 8 -3 17 -1 20 6 2 7 5 6 5 -4 1 -14 75 -48 176 -79 22
-7 45 -16 50 -20 6 -4 35 -15 65 -25 30 -10 59 -21 63 -25 9 -8 -40 -38 -252
-155 l-73 -40 161 -3 c150 -2 163 -1 183 18 24 22 38 26 38 10 0 -5 5 -10 10
-10 6 0 10 6 9 12 -3 27 2 38 16 38 8 0 15 -4 15 -10 0 -5 5 -10 12 -10 28 0
-24 34 -54 36 -55 3 -58 3 -58 20 0 11 6 15 20 11 11 -3 20 0 20 6 0 7 4 6 9
-2 8 -13 12 -13 27 0 10 8 15 9 11 2 -5 -8 0 -11 13 -10 14 1 19 6 15 17 -4 8
9 1 27 -15 18 -17 30 -26 26 -21 -9 11 9 36 26 36 6 0 4 -5 -4 -10 -8 -5 -10
-10 -4 -10 17 0 33 21 27 39 -3 12 -2 12 7 -2 9 -14 15 -16 25 -7 8 7 23 9 34
5 10 -3 22 -1 26 5 3 5 -2 10 -11 10 -30 0 -6 13 33 17 20 2 43 9 50 14 6 6
17 8 23 4 6 -4 18 -1 27 6 8 7 27 15 41 17 14 2 34 9 45 17 14 10 26 11 38 4
12 -6 20 -5 25 3 4 6 3 8 -4 4 -6 -3 -13 -2 -16 3 -5 7 64 61 78 61 7 0 169
100 186 115 16 14 107 67 150 88 27 13 41 23 71 50 10 9 24 17 29 17 9 0 90
49 90 55 0 1 -10 0 -22 -2 -13 -2 -31 2 -41 9 -17 13 -16 15 17 33 l36 20 0
186 0 187 -125 -56 -125 -55 -1 -51 c-3 -129 1 -171 21 -234 12 -37 23 -72 25
-79 3 -9 -372 -233 -390 -233 -3 0 -5 98 -5 219 l0 219 158 72 c88 40 164 81
170 91 10 15 9 17 -3 13 -8 -4 -23 -3 -32 1 -15 6 -13 9 12 21 87 41 -72 -15
-239 -85 -54 -22 -103 -41 -109 -41 -6 0 -82 19 -169 42 -151 39 -184 57 -102
58 49 0 121 29 152 62 l30 29 154 -40 c174 -46 178 -47 178 -26 0 8 12 18 28
21 15 4 38 12 52 19 14 8 46 23 73 34 26 12 47 26 47 32 0 5 -4 7 -10 4 -5 -3
-48 -19 -95 -36 -69 -23 -88 -27 -99 -17 -10 10 -11 17 -2 31 16 25 6 29 -151
63 -76 16 -129 30 -120 32 20 4 23 48 5 55 -10 4 -10 6 0 6 7 1 12 15 12 35 0
45 -9 66 -27 66 -11 0 -14 8 -11 29 l4 28 -150 27 c-83 15 -158 30 -167 32
-11 3 -19 -4 -23 -22 -6 -24 -10 -25 -46 -19 l-40 7 0 -50 0 -50 53 -11 52
-10 -60 5 c-32 2 -62 10 -66 16 -4 6 -9 2 -14 -11 -3 -11 -13 -21 -20 -21 -25
0 -28 21 -6 50 11 16 17 31 12 35 -5 3 -12 -3 -14 -12 -3 -10 -5 7 -6 37 0 30
3 60 7 66 10 16 97 23 160 12 35 -6 71 -5 108 2 47 10 76 8 218 -16 127 -21
163 -30 159 -40 -4 -11 5 -14 36 -14 23 0 80 -6 128 -14 49 -8 135 -22 193
-31 58 -9 188 -29 290 -46 102 -16 215 -34 253 -40 l67 -11 0 -141 c0 -192 10
-307 25 -307 9 0 13 29 15 103 1 56 5 121 8 144 l7 43 193 -98 192 -97 3 -185
c3 -177 4 -185 24 -188 18 -3 20 4 26 95 4 54 7 142 7 195 0 53 4 99 9 102 4
3 64 -1 132 -9 68 -8 125 -15 127 -15 1 0 2 -16 2 -35 0 -19 5 -35 11 -35 7 0
9 15 5 43 -5 42 -5 42 5 7 6 -19 8 -48 5 -65 -10 -49 -10 -67 -2 -123 6 -36 4
-58 -3 -65 -6 -6 -11 -16 -11 -22 0 -5 5 -3 10 5 8 13 10 12 11 -5 1 -11 1
-31 0 -45 -2 -20 0 -22 9 -10 9 13 11 13 19 0 6 -9 6 -17 1 -20 -6 -3 10 -6
35 -6 29 1 45 5 45 13 0 7 5 12 11 11 6 -2 14 3 16 10 3 6 0 12 -6 12 -7 0
-10 19 -9 48 1 47 1 47 5 7 3 -22 9 -45 15 -52 6 -7 8 -19 5 -26 -3 -8 3 -14
15 -14 15 -2 19 3 15 18 -7 26 2 24 13 -3 5 -14 8 123 7 347 -2 343 -3 370
-19 373 -12 2 -16 -1 -12 -11 6 -16 -49 -22 -76 -7 -9 5 -32 5 -51 1 -21 -5
-108 -1 -218 11 -101 10 -186 16 -189 13 -3 -3 2 -11 10 -18 13 -10 15 -26 11
-89 l-6 -77 -31 5 c-47 8 -349 162 -328 167 10 3 6 5 -10 6 l-28 1 0 76 0 77
188 -8 c103 -4 259 -12 347 -19 l160 -11 0 -63 c0 -59 1 -63 20 -56 11 3 37 8
57 11 42 6 65 31 123 136 20 37 41 67 46 67 6 0 9 21 7 47 l-3 47 -105 19
c-58 10 -106 23 -108 28 -2 5 -12 9 -23 9 -19 0 -20 -6 -16 -110 l4 -110 -58
0 c-32 0 -114 5 -181 10 -164 14 -512 29 -518 22 -3 -2 1 -7 8 -9 19 -7 16
-73 -4 -73 -13 0 -14 -2 -1 -14 9 -9 12 -26 9 -41 -4 -24 -8 -26 -36 -21 -17
3 -134 21 -261 41 -126 19 -250 39 -275 45 -44 9 -44 9 12 4 49 -5 57 -3 62
13 3 10 5 461 4 1001 -1 613 1 985 7 991 6 5 96 21 200 35 480 65 1223 167
1253 172 l32 6 0 84 c0 73 -2 85 -20 94 -11 6 -32 29 -45 50 -14 22 -33 40
-43 41 -9 0 -12 3 -6 5 14 6 6 45 -10 56 -6 4 8 8 31 8 36 0 42 -3 51 -27 6
-16 17 -37 26 -48 14 -18 15 15 16 383 l0 402 -3485 0 -3485 0 0 -997z m6739
202 c27 -44 44 -81 40 -83 -5 -2 -9 -13 -9 -25 -1 -19 -2 -20 -10 -6 -10 18
-59 14 -72 -5 -6 -8 -8 -8 -8 1 0 7 -13 10 -35 8 -19 -2 -33 0 -30 5 3 5 -4
14 -15 20 -11 6 -20 17 -20 25 0 7 -3 15 -8 17 -9 4 -82 103 -82 112 0 3 20 6
45 6 43 0 45 -2 81 -57 42 -67 47 -84 25 -100 -13 -10 -9 -10 16 -1 34 13 33
23 -9 77 -11 14 -16 32 -12 43 4 15 1 18 -12 16 -9 -2 -19 3 -22 11 -2 8 0 11
5 8 5 -3 15 -2 22 2 6 4 23 7 37 7 20 -2 35 -18 73 -81z m-360 45 c12 -17 27
-28 33 -24 7 4 8 3 4 -4 -6 -11 16 -55 39 -77 6 -5 24 -30 40 -55 20 -32 22
-40 8 -27 -23 20 -40 22 -45 5 -3 -8 -15 -1 -34 18 -37 41 -54 62 -54 69 0 3
-15 19 -32 34 -18 16 -41 42 -50 58 l-17 30 42 1 c37 2 46 -2 66 -28z m96 9
c12 -37 13 -59 4 -59 -6 0 -7 -5 -3 -11 3 -6 -5 -3 -20 6 -14 10 -26 24 -26
31 0 8 -5 14 -11 14 -14 0 -39 26 -32 34 3 3 23 5 44 4 27 -1 40 -7 44 -19z
m-581 -28 c-5 -6 -34 20 -34 30 0 5 8 1 18 -8 10 -10 17 -20 16 -22z m141 21
c3 -8 8 -13 11 -10 5 5 114 -104 114 -114 0 -3 21 -27 48 -54 45 -46 46 -49
23 -52 -13 -2 -28 2 -32 10 -7 11 -9 10 -9 -1 0 -10 -10 -5 -30 14 -16 16 -40
29 -52 30 -12 1 -24 7 -26 13 -2 7 -15 9 -33 5 -25 -5 -36 1 -77 42 -26 27
-42 45 -36 42 13 -8 28 19 25 43 -1 8 32 -20 74 -64 42 -43 79 -75 83 -71 4 4
-9 19 -28 35 -20 16 -60 56 -89 90 l-53 61 41 -2 c24 -2 43 -9 46 -17z m205
-93 c52 -61 96 -115 98 -120 2 -4 -7 -6 -20 -3 -13 3 -30 6 -38 6 -9 0 -38 22
-65 50 -28 28 -44 48 -37 44 7 -4 12 -1 12 9 0 9 -4 13 -10 10 -20 -12 -32 7
-13 20 13 10 15 17 7 25 -8 8 -15 7 -28 -5 -15 -15 -16 -15 -17 7 0 13 -3 17
-6 10 -3 -8 -11 -5 -24 12 -27 34 -24 46 14 46 29 0 42 -11 127 -111z m520 80
c0 -11 -4 -17 -10 -14 -5 3 -10 13 -10 21 0 8 5 14 10 14 6 0 10 -9 10 -21z
m-1225 1 c3 -6 -1 -7 -9 -4 -18 7 -21 14 -7 14 6 0 13 -4 16 -10z m976 -21 c8
-17 8 -20 -2 -17 -7 2 -13 12 -15 21 -3 23 3 21 17 -4z m-946 1 c3 -5 1 -10
-4 -10 -6 0 -11 5 -11 10 0 6 2 10 4 10 3 0 8 -4 11 -10z m350 1 c-3 -6 3 -14
12 -20 16 -9 16 -10 1 -11 -9 0 -20 5 -23 10 -6 10 1 30 11 30 3 0 3 -4 -1 -9z
m-277 -68 c20 -21 40 -38 45 -38 4 0 24 -16 45 -37 20 -20 59 -56 86 -81 l49
-44 -30 -1 c-22 0 -39 8 -59 29 l-29 31 30 -8 c17 -4 27 -3 22 2 -4 4 -17 9
-29 11 -27 4 -49 22 -46 37 2 6 -2 11 -7 11 -6 0 -9 -4 -7 -9 4 -13 -29 14
-51 41 -11 14 -24 20 -34 16 -11 -4 -14 -3 -9 5 7 11 -6 17 -27 13 -5 -1 -6 3
-2 9 3 5 1 10 -5 10 -6 0 -8 5 -5 10 3 6 0 10 -7 10 -9 0 -9 3 2 10 23 15 28
13 68 -27z m623 20 c13 -16 12 -17 -3 -4 -10 7 -18 15 -18 17 0 8 8 3 21 -13z
m-3861 -33 c-10 -7 -11 -10 -2 -10 6 0 12 -4 12 -10 0 -19 -28 -10 -33 10 -3
11 -1 18 3 15 5 -3 12 0 15 6 4 5 10 8 13 4 4 -3 0 -10 -8 -15z m4116 -7 c-7
-7 -26 7 -26 19 0 6 6 6 15 -2 9 -7 13 -15 11 -17z m-2476 -3 c-8 -5 -24 -9
-35 -9 -16 1 -16 2 5 9 35 11 48 11 30 0z m101 -18 c-7 -2 -18 1 -23 6 -8 8
-4 9 13 5 13 -4 18 -8 10 -11z m169 -2 c-19 -12 -30 -12 -30 -1 0 10 31 20 40
14 2 -2 -2 -8 -10 -13z m2256 11 c-7 -11 -56 -21 -56 -10 0 4 12 10 28 12 15
2 28 5 30 6 2 0 1 -3 -2 -8z m-2520 -16 c-36 -19 -47 -19 -22 0 11 8 27 15 35
15 9 0 3 -7 -13 -15z m452 -10 c-3 -3 -9 2 -12 12 -6 14 -5 15 5 6 7 -7 10
-15 7 -18z m72 15 c8 -5 11 -12 7 -16 -4 -4 -15 0 -24 9 -18 18 -8 23 17 7z
m-686 -11 c-4 -8 1 -9 17 -5 23 7 23 6 -4 -18 -31 -29 -59 -36 -31 -9 12 12
13 18 4 21 -9 3 -9 6 1 13 19 12 22 11 13 -2z m91 1 c3 -5 2 -10 -4 -10 -5 0
-11 -7 -13 -15 -2 -10 -8 -12 -17 -5 -12 7 -12 11 -2 24 15 18 27 20 36 6z
m656 -7 c13 -15 12 -15 -8 -4 -24 12 -29 21 -14 21 5 0 15 -7 22 -17z m-2226
-2 c3 -5 1 -12 -5 -16 -5 -3 -10 1 -10 9 0 18 6 21 15 7z m2288 -5 c10 -8 15
-16 10 -19 -4 -2 -17 4 -27 14 -22 22 -10 25 17 5z m-1303 -16 c-20 -13 -40
-13 -40 0 0 6 12 10 28 10 21 0 24 -2 12 -10z m421 -31 c-19 -17 -21 -18 -21
-3 0 9 8 23 18 30 25 19 28 -4 3 -27z m679 25 c5 -6 -21 -24 -35 -24 -19 0
-37 18 -30 30 7 11 52 6 65 -6z m1630 -13 c0 6 10 0 21 -15 15 -19 18 -31 11
-38 -16 -16 -45 -1 -38 18 6 15 4 15 -11 3 -15 -12 -16 -12 -10 4 4 10 3 16
-2 12 -6 -3 -13 1 -18 9 -4 8 -12 15 -18 15 -5 0 -11 5 -13 11 -2 6 14 2 37
-9 26 -14 41 -17 41 -10z m-1845 9 c13 -6 15 -9 5 -9 -8 0 -22 4 -30 9 -18 12
-2 12 25 0z m340 0 c-3 -5 -13 -10 -21 -10 -8 0 -12 5 -9 10 3 6 13 10 21 10
8 0 12 -4 9 -10z m35 -21 c0 -5 -10 -9 -21 -9 -18 0 -19 2 -9 15 12 15 30 12
30 -6z m-744 -4 c-23 -17 -14 -20 17 -4 21 10 21 10 3 -5 -22 -18 -44 -20 -66
-6 -12 7 -10 11 10 19 39 15 59 13 36 -4z m172 0 c2 -2 0 -5 -5 -8 -5 -3 -19
1 -33 9 l-25 14 30 -6 c17 -4 31 -8 33 -9z m-358 -10 c-7 -8 -17 -15 -23 -15
-6 0 -2 7 9 15 25 19 30 19 14 0z m58 -20 c-2 -5 -9 -10 -16 -12 -8 -1 -11 1
-8 4 3 4 1 12 -5 20 -10 11 -8 12 10 5 13 -4 21 -12 19 -17z m340 -45 c-13
-11 -27 -19 -33 -20 -5 0 -3 5 5 10 10 7 11 13 5 18 -18 12 -11 33 15 47 23
13 25 12 28 -11 2 -16 -5 -31 -20 -44z m90 52 c2 -7 -3 -12 -12 -12 -9 0 -16
7 -16 16 0 17 22 14 28 -4z m129 -2 c-1 -11 -6 -20 -12 -20 -6 0 -5 -3 2 -8 8
-5 3 -11 -13 -19 -22 -10 -25 -9 -31 14 -4 19 -1 30 12 40 27 19 44 16 42 -7z
m63 10 c0 -5 3 -9 8 -9 23 4 32 -4 32 -26 0 -25 -22 -33 -46 -17 -14 8 -16 62
-3 62 5 0 9 -4 9 -10z m129 -31 c1 -4 -10 -9 -24 -11 -14 -3 -25 -1 -25 3 0 5
10 10 23 10 22 2 22 2 -1 6 -22 4 -23 5 -5 18 15 12 19 11 25 -3 4 -9 7 -20 7
-23z m246 31 c4 -6 15 -8 26 -5 13 4 19 2 19 -8 0 -8 7 -18 16 -21 8 -3 12 -2
9 4 -3 6 -4 10 -1 10 3 0 17 -17 31 -37 26 -39 34 -80 13 -67 -7 4 -8 3 -4 -5
4 -6 11 -9 16 -6 13 8 20 -23 20 -92 0 -69 -17 -146 -31 -138 -4 3 -11 0 -15
-6 -4 -8 -3 -9 4 -5 30 18 0 -36 -47 -87 l-26 -29 35 6 c105 18 284 36 300 31
10 -3 20 -16 24 -28 3 -12 3 -139 1 -282 -3 -143 -7 -507 -10 -810 -3 -302 -7
-550 -8 -551 -2 -2 -524 70 -584 81 -25 4 -32 2 -36 -12 -3 -10 -5 0 -6 22 -3
102 -14 175 -27 175 -7 0 -16 5 -20 12 -5 8 -2 9 10 5 17 -7 18 1 11 110 -4
65 -9 120 -11 122 -2 2 -5 -47 -5 -110 -2 -105 -2 -109 -10 -54 -5 33 -9 204
-9 380 0 176 -3 422 -7 548 l-6 227 -36 1 c-30 2 -32 3 -8 6 29 5 32 10 18 32
-6 10 -17 11 -37 6 -27 -7 -27 -8 -9 -16 18 -8 17 -8 -5 -7 -14 1 -31 -1 -37
-5 -7 -5 -21 -3 -30 2 -15 8 -15 11 -3 12 8 1 19 1 23 0 5 -1 7 4 5 11 -3 7
-15 14 -29 16 -18 2 -21 1 -9 -7 11 -7 6 -10 -18 -9 -22 1 -38 -6 -53 -23 -14
-16 -22 -20 -27 -12 -4 7 -21 19 -37 27 -22 12 -32 13 -43 3 -8 -6 -26 -11
-41 -12 -14 0 -24 -4 -21 -10 3 -5 16 -9 30 -7 20 2 22 0 10 -8 -8 -5 -27 -10
-42 -10 -29 0 -33 14 -11 37 9 10 7 19 -11 38 -23 25 -76 35 -76 14 0 -6 9 -8
21 -4 14 5 27 0 40 -14 15 -16 16 -21 5 -21 -18 0 -29 -27 -13 -34 7 -4 -19
-4 -58 -2 -66 5 -194 39 -205 55 -3 5 -18 11 -33 15 -29 7 -59 35 -64 61 -2 8
-5 23 -7 33 -3 9 -5 20 -5 25 -2 14 -18 7 -18 -8 0 -8 5 -11 10 -8 6 4 7 1 2
-6 -12 -21 -27 3 -30 47 -3 44 -12 65 -25 57 -5 -3 -8 3 -7 14 0 11 5 17 10
14 5 -3 6 5 2 18 -4 18 -4 20 4 10 8 -12 12 -12 25 -2 9 8 16 9 16 3 0 -6 3
-18 7 -28 5 -12 3 -15 -6 -9 -10 6 -11 2 -6 -15 5 -16 4 -20 -5 -15 -9 5 -10
1 -5 -16 10 -32 94 -131 106 -123 15 9 10 24 -6 18 -9 -4 -15 0 -15 9 0 8 -7
18 -16 21 -16 6 -11 26 7 26 6 0 8 -4 5 -8 -2 -4 4 -14 16 -21 18 -11 19 -10
13 11 -9 31 -45 68 -45 48 0 -13 -2 -13 -10 0 -8 12 -10 12 -10 -5 -1 -17 -3
-17 -11 4 -12 30 -5 51 16 51 12 0 11 4 -5 20 -11 11 -20 33 -20 50 0 20 -4
28 -13 24 -8 -3 -14 2 -14 10 0 8 3 15 6 14 19 -2 31 3 31 13 0 20 -45 4 -57
-21 -9 -17 -13 -20 -13 -8 0 9 6 23 13 30 8 7 14 29 15 47 1 39 22 69 22 31 0
-22 1 -22 19 -6 10 9 25 14 35 10 11 -4 16 -1 16 12 0 16 -2 17 -10 4 -8 -13
-10 -12 -10 3 0 10 -4 16 -9 13 -5 -3 -11 0 -14 8 -7 18 18 54 30 43 4 -5 -1
-15 -11 -23 -19 -14 -19 -14 3 -14 12 0 33 12 47 27 14 15 25 23 24 18 -1 -6
-2 -23 0 -40 1 -26 3 -27 9 -10 5 11 6 26 3 34 -4 11 1 12 24 7 16 -4 24 -3
18 1 -9 6 -8 12 2 21 12 11 14 9 15 -10 0 -13 3 -17 6 -10 7 19 19 14 19 -9 0
-15 -6 -20 -26 -18 -39 2 -46 0 -30 -11 17 -11 20 -32 5 -42 -6 -5 -3 -8 8 -8
23 0 22 -12 -3 -28 -24 -14 -26 -32 -5 -32 20 0 19 -27 -1 -38 -14 -8 -14 -12
-3 -30 19 -31 1 -41 -21 -12 l-20 25 0 -22 c0 -13 -5 -23 -11 -23 -6 0 -9 7
-6 15 7 18 -8 29 -25 18 -24 -14 -39 -11 -48 10 -7 19 -9 16 -9 -15 -1 -20 4
-40 9 -43 6 -3 10 0 10 7 0 8 5 6 11 -5 6 -9 14 -15 18 -13 4 3 7 -4 8 -14 1
-10 -5 -20 -13 -22 -13 -3 -13 -5 0 -23 12 -16 17 -17 24 -7 5 8 13 13 18 12
5 -1 10 3 12 9 2 6 -1 11 -6 11 -5 0 -12 6 -15 14 -6 15 9 16 31 3 7 -5 12 -4
12 2 0 6 5 11 10 11 19 0 10 -42 -10 -47 -12 -3 -19 -12 -18 -22 2 -10 -3 -15
-14 -13 -15 2 -16 0 -3 -24 9 -18 23 -28 40 -30 32 -3 44 -12 28 -22 -8 -5 -8
-13 1 -31 l13 -23 6 31 c6 28 27 45 27 21 0 -5 5 -10 11 -10 5 0 8 4 5 9 -3 5
5 8 19 7 28 -1 31 -6 13 -24 -9 -9 -9 -12 1 -12 7 0 9 -5 6 -10 -4 -6 -3 -10
2 -9 22 4 25 -2 7 -16 -18 -14 -17 -15 8 -4 16 7 24 17 21 25 -3 8 1 14 8 14
9 1 8 4 -3 11 -10 5 -18 15 -18 21 0 6 11 3 25 -6 28 -19 49 -21 39 -4 -4 7
-3 8 5 4 6 -4 25 -1 41 8 17 8 30 11 30 6 0 -20 33 -19 51 2 10 13 18 18 19
13 0 -6 -5 -16 -12 -23 -10 -10 -3 -11 56 -3 4 0 6 8 2 16 -3 8 -2 14 2 14 19
-3 22 2 8 16 -8 8 -23 12 -33 9 -16 -5 -16 -4 -1 5 11 7 24 8 40 2 12 -6 19
-10 13 -11 -5 0 -3 -5 5 -10 9 -6 11 -10 3 -10 -7 0 -10 -7 -7 -15 9 -22 41
-18 54 5 15 28 28 25 22 -5 -5 -30 17 -35 25 -5 3 11 12 20 20 20 11 0 13 7 9
24 -5 19 -2 25 11 24 10 0 27 3 37 7 15 7 17 5 11 -6 -6 -11 -5 -12 5 -2 8 8
19 9 30 3 20 -11 48 24 28 36 -7 4 -2 12 13 20 35 19 40 17 29 -12 -14 -35
-13 -36 10 -24 14 7 26 8 39 0 16 -8 23 -5 41 20 17 24 18 30 7 30 -9 0 -18
-6 -20 -12 -3 -7 -6 -8 -6 -3 0 6 3 16 8 24 7 10 13 11 31 1 21 -11 22 -11 18
19 -5 34 15 49 39 30 18 -15 24 -9 16 19 -4 18 -8 20 -19 11 -11 -9 -14 -5
-14 25 0 23 5 36 13 36 19 0 37 -21 37 -43 0 -11 4 -15 11 -11 9 5 10 -1 5
-20 -7 -27 -1 -32 24 -16 12 8 11 13 -8 33 -25 26 -28 47 -9 66 10 10 9 12 -1
9 -8 -2 -18 7 -23 20 -8 21 4 32 15 13 3 -5 15 -11 25 -14 19 -5 19 -4 3 21
-16 25 -16 25 6 20 23 -6 32 15 12 27 -5 3 -10 1 -10 -6 0 -8 -4 -8 -15 1 -8
7 -15 24 -15 38 l0 25 23 -21 c29 -27 36 -28 34 -2 -1 11 -6 20 -13 20 -6 0
-17 7 -24 15 -10 13 -9 15 8 15 12 0 24 -5 27 -10z m-745 -20 c4 0 8 -16 7
-35 -1 -19 -5 -35 -9 -35 -4 0 -8 5 -8 10 0 6 -10 10 -22 11 -22 0 -22 1 -3 9
17 7 17 9 3 9 -10 1 -18 7 -18 14 0 19 12 29 28 22 7 -3 17 -5 22 -5z m578 -2
c15 -15 16 -28 2 -28 -5 0 -10 6 -10 14 0 8 -8 17 -17 19 -14 4 -14 5 -2 6 8
0 20 -4 27 -11z m-2198 -8 c0 -5 -5 -10 -11 -10 -5 0 -7 5 -4 10 3 6 8 10 11
10 2 0 4 -4 4 -10z m1540 -15 c0 -18 -7 -28 -26 -35 -32 -12 -34 -12 -34 0 0
6 12 11 28 11 l27 1 -29 7 c-28 6 -28 7 -11 21 11 8 16 10 11 3 -5 -9 -2 -11
8 -7 9 3 13 10 10 15 -3 5 0 9 5 9 6 0 11 -11 11 -25z m250 5 c0 -5 -4 -10
-10 -10 -5 0 -10 5 -10 10 0 6 5 10 10 10 6 0 10 -4 10 -10z m483 -26 c-19
-30 -20 -30 -25 4 -4 25 -1 28 19 24 21 -4 21 -5 6 -28z m-2286 -21 c-3 -10
-5 -4 -5 12 0 17 2 24 5 18 2 -7 2 -21 0 -30z m1461 15 c-7 -13 -11 -29 -10
-36 3 -10 -1 -11 -17 -3 -20 11 -20 11 2 35 28 31 41 32 25 4z m-1648 3 c0 -8
-169 -72 -187 -70 -6 0 171 76 185 78 1 1 2 -3 2 -8z m2297 3 c-3 -3 -12 -4
-19 -1 -8 3 -5 6 6 6 11 1 17 -2 13 -5z m-120 -34 c21 -16 23 -21 9 -25 -9 -3
-23 -7 -32 -10 -21 -7 -56 13 -48 27 4 7 9 6 14 -2 5 -7 16 -10 25 -6 14 5 15
9 5 21 -18 21 -3 19 27 -5z m-196 0 c10 -6 19 -14 19 -19 0 -13 -44 -28 -66
-22 -18 5 -20 10 -13 29 9 24 29 28 60 12z m380 0 c22 -13 27 -45 4 -37 -8 4
-17 2 -20 -4 -9 -14 -25 -1 -18 16 3 9 -1 15 -8 15 -11 0 -11 3 1 10 19 12 17
12 41 0z m-591 -21 c0 -4 7 -6 15 -3 8 4 15 1 15 -5 0 -6 -7 -11 -15 -11 -8 0
-15 -4 -15 -9 0 -12 -35 -20 -48 -12 -8 5 -10 46 -3 46 1 0 12 1 26 1 14 1 25
-2 25 -7z m-150 -44 c-11 -13 -9 -15 11 -16 13 0 18 -3 12 -6 -7 -2 -13 -9
-13 -14 0 -6 5 -7 10 -4 12 8 13 -45 1 -64 -17 -26 -37 9 -35 60 1 46 11 75
21 65 3 -3 0 -12 -7 -21z m1425 15 c-3 -5 -17 -10 -31 -10 -13 0 -24 5 -24 10
0 6 14 10 31 10 17 0 28 -4 24 -10z m-1015 -30 c0 -16 -4 -30 -10 -30 -5 0 -9
-5 -7 -12 1 -7 -8 -13 -20 -14 -18 -1 -22 4 -20 25 4 55 57 84 57 31z m60 16
c0 -3 -4 -8 -10 -11 -5 -3 -10 -1 -10 4 0 6 5 11 10 11 6 0 10 -2 10 -4z m120
-26 c0 -11 6 -20 13 -20 13 -1 -30 -40 -44 -40 -5 0 -9 7 -9 15 0 8 5 15 11
15 6 0 8 7 5 16 -7 18 0 34 15 34 5 0 9 -9 9 -20z m185 -11 c-16 -16 -17 -22
-6 -29 11 -6 9 -10 -7 -19 -28 -15 -28 -15 -24 23 3 22 11 37 25 44 30 13 34
6 12 -19z m-599 -5 c-6 -22 -4 -25 14 -19 11 3 20 3 20 0 0 -11 -44 -43 -52
-38 -12 7 -9 58 4 71 18 18 21 15 14 -14z m134 -20 c0 -39 -6 -41 -40 -14 -14
11 -18 18 -9 15 17 -6 34 19 24 36 -4 5 1 6 9 3 10 -4 16 -19 16 -40z m200 22
c0 -24 -24 -41 -42 -30 -7 4 -4 10 6 16 9 5 16 16 16 23 0 8 5 15 10 15 6 0
10 -11 10 -24z m190 -28 c0 -15 -4 -28 -9 -28 -5 0 -7 8 -4 19 3 12 -2 20 -16
24 -12 3 -21 12 -21 21 0 13 4 14 25 4 18 -8 25 -19 25 -40z m-2125 13 c-3 -6
-11 -11 -16 -11 -5 0 -4 6 3 14 14 16 24 13 13 -3z m1543 -5 c3 -14 0 -16 -15
-8 -10 5 -24 7 -30 5 -7 -3 -13 0 -13 5 0 11 27 21 45 17 6 -1 12 -10 13 -19z
m330 -60 c2 -10 -1 -23 -7 -29 -8 -8 -11 -5 -11 11 0 25 -3 26 -33 11 -20 -9
-20 -9 2 11 27 23 44 22 49 -4z m187 14 c3 -6 -1 -7 -9 -4 -18 7 -21 14 -7 14
6 0 13 -4 16 -10z m-381 -21 c-3 -5 -9 -7 -14 -4 -4 3 -11 -2 -14 -11 -3 -8
-10 -12 -16 -9 -16 10 -12 21 13 32 24 11 41 7 31 -8z m354 -19 c-2 -5 -9 -6
-17 -1 -9 6 -11 16 -7 27 7 18 8 18 17 1 6 -10 9 -22 7 -27z m-528 -11 c0 -10
-4 -19 -10 -19 -5 0 -10 12 -10 26 0 14 4 23 10 19 6 -3 10 -15 10 -26z m300
-31 c0 -6 7 -8 15 -4 16 6 20 -11 7 -31 -6 -10 -13 -9 -30 3 -25 17 -31 57 -7
48 8 -4 15 -11 15 -16z m-70 2 c0 -5 -4 -10 -9 -10 -5 0 -18 -3 -28 -7 -16 -6
-16 -5 -4 10 15 19 41 23 41 7z m180 -16 c0 -11 -5 -11 -25 -2 -17 8 -22 14
-14 19 16 10 39 0 39 -17z m76 -5 c-30 -24 -36 -24 -36 0 0 20 24 31 47 23 9
-3 5 -11 -11 -23z m164 27 c0 -2 -7 -7 -16 -10 -8 -3 -12 -2 -9 4 6 10 25 14
25 6z m-500 -42 c0 -21 -3 -23 -19 -14 -28 14 -36 31 -21 40 21 13 40 0 40
-26z m-153 -10 c3 -8 3 -17 0 -20 -11 -11 -41 14 -42 34 -1 17 2 19 17 11 11
-6 22 -17 25 -25z m-84 -2 c10 -10 14 -21 11 -25 -9 -9 -44 16 -44 30 0 18 14
16 33 -5z m-27 -49 c-9 -9 -36 18 -36 35 0 12 5 11 21 -7 12 -12 18 -25 15
-28z m519 27 c-3 -5 -11 -10 -16 -10 -6 0 -7 5 -4 10 3 6 11 10 16 10 6 0 7
-4 4 -10z m-405 -30 c0 -5 -4 -10 -10 -10 -5 0 -10 5 -10 10 0 6 5 10 10 10 6
0 10 -4 10 -10z m1485 -12 c2 -13 2 -57 -1 -98 -3 -41 -7 -414 -10 -827 l-4
-753 -35 0 -35 0 0 -64 c0 -59 2 -65 23 -69 19 -4 18 -4 -5 -6 l-28 -1 0 914
c0 722 3 915 13 919 6 3 27 6 44 6 26 1 34 -4 38 -21z m-5240 -89 l20 -8 -20
0 c-11 0 -42 6 -70 14 l-50 14 50 -6 c28 -3 59 -9 70 -14z m2041 -23 c1 0 5
-22 8 -47 l6 -46 -77 3 -78 2 78 -10 c64 -9 77 -14 77 -30 0 -16 -9 -18 -75
-18 -41 0 -75 -3 -75 -7 1 -26 17 -29 83 -18 41 7 70 8 74 2 3 -5 2 -208 -2
-451 -4 -242 -4 -462 0 -488 8 -51 22 -62 78 -60 18 0 30 -5 34 -16 7 -19 43
-68 43 -59 0 4 -9 22 -19 41 l-19 34 30 6 c16 3 34 3 39 0 5 -3 9 111 9 273 1
558 2 585 28 576 10 -4 13 -2 8 5 -5 8 4 12 28 12 20 0 36 -4 36 -8 0 -13 93
-28 130 -20 19 4 53 10 75 13 l40 7 -40 14 c-22 7 -50 14 -62 14 -12 0 -25 5
-28 10 -8 13 25 26 34 13 8 -13 81 -16 81 -3 0 5 18 10 40 10 23 0 40 5 40 11
0 11 124 8 185 -5 19 -4 25 -3 16 3 -21 14 0 20 44 11 22 -4 33 -8 25 -9 -9
-1 -4 -7 11 -15 31 -16 177 -26 182 -12 2 5 10 2 19 -7 8 -9 26 -18 39 -21 13
-3 36 -7 50 -10 22 -5 28 -2 33 17 5 20 10 22 51 19 25 -2 53 -1 61 2 15 6 15
8 -1 26 -16 18 -32 20 -154 21 -77 0 -153 6 -176 13 -28 8 -52 9 -79 3 -27 -7
-44 -7 -57 1 -10 7 -28 12 -39 12 -13 0 -18 5 -14 14 5 12 26 14 112 11 59 -1
121 -6 137 -9 36 -8 148 -16 228 -17 46 -1 57 -4 57 -17 0 -10 3 -13 8 -7 12
17 89 17 105 0 9 -8 26 -15 39 -16 13 0 17 -3 9 -6 -11 -5 -11 -7 0 -14 9 -6
-4 -9 -36 -9 -36 0 -46 -3 -38 -11 10 -10 85 -30 121 -32 7 0 11 -6 8 -13 -3
-7 0 -15 7 -18 7 -3 -19 -5 -58 -4 -38 0 -94 0 -124 -1 l-53 -1 28 -29 c16
-16 42 -35 58 -41 21 -8 26 -14 18 -22 -7 -7 -90 -7 -294 1 -355 14 -328 14
-328 -6 0 -16 12 -18 88 -20 48 0 134 -6 192 -12 58 -6 158 -14 224 -17 l118
-6 -5 -117 c-3 -64 -8 -124 -12 -133 -6 -15 -21 -18 -94 -18 -47 0 -113 -2
-146 -4 -33 -3 -129 -6 -212 -8 -141 -3 -174 -8 -140 -21 9 -4 8 -8 -3 -17
-12 -8 -10 -10 10 -6 35 7 600 16 575 9 -17 -4 -65 -49 -65 -60 0 -6 281 -2
297 4 10 4 13 35 13 124 0 111 7 138 27 107 13 -22 -1 -524 -19 -675 -2 -15
-25 -6 -32 13 -3 8 -13 14 -23 13 -11 0 -13 -3 -5 -6 26 -10 10 -22 -25 -18
-21 3 -30 2 -20 -1 20 -6 22 -15 6 -31 -7 -7 -2 -9 18 -6 26 4 27 3 8 -9 -24
-16 -30 -38 -10 -38 10 0 12 -6 8 -17 -6 -16 -5 -17 12 -3 17 14 18 13 12 -3
-4 -11 -3 -16 3 -12 14 9 30 -39 30 -91 l0 -44 50 0 c28 0 50 -4 50 -10 0 -5
-20 -8 -47 -5 l-48 4 40 -10 c22 -5 61 -11 87 -13 26 -2 51 -7 56 -10 6 -3 13
0 15 6 4 10 7 10 14 1 5 -7 20 -11 33 -8 13 3 27 -1 31 -7 6 -9 11 -9 22 1 17
14 22 8 31 -35 l7 -32 -103 23 c-57 12 -112 19 -123 15 -15 -5 -4 -10 40 -19
111 -23 105 -20 105 -60 0 -62 -18 -76 -131 -102 -71 -16 -96 -25 -83 -30 16
-6 16 -8 2 -8 -9 -1 -24 -4 -33 -7 -9 -4 -15 -3 -13 2 6 21 -13 95 -23 88 -6
-3 -30 -3 -54 1 -33 4 -43 10 -38 21 3 7 14 14 26 14 11 0 18 3 15 6 -3 3 -29
1 -58 -4 -34 -6 -63 -6 -85 1 -27 8 -37 7 -49 -6 -9 -8 -16 -23 -16 -31 0 -9
-4 -16 -10 -16 -5 0 -10 -20 -10 -44 l0 -45 -127 35 c-199 54 -178 54 -189 -7
-11 -61 17 -50 -299 -124 -460 -107 -412 -101 -495 -65 -38 17 -71 30 -75 30
-4 0 -46 12 -93 27 l-85 26 139 33 c76 18 153 33 169 33 26 1 30 -3 31 -29 1
-38 29 -80 53 -80 43 0 90 77 59 96 -6 4 -6 9 3 14 9 6 9 12 -4 25 -10 10 -17
32 -17 55 0 51 -62 170 -88 170 -7 0 -10 5 -7 11 10 14 -4 81 -15 74 -5 -3
-11 -1 -14 4 -6 10 33 20 52 13 7 -2 19 -17 28 -34 15 -28 17 -29 32 -14 27
27 -19 64 -95 77 -46 8 -63 16 -71 32 -8 17 -11 18 -11 6 -2 -41 -48 -23 -65
25 -3 10 -9 17 -12 14 -6 -7 17 -58 27 -58 4 0 12 -13 18 -30 8 -26 15 -30 45
-30 19 0 37 -4 40 -8 3 -5 -17 -7 -45 -4 -27 2 -55 -1 -62 -6 -31 -26 -67 -5
-72 41 -1 9 -9 23 -19 30 -10 7 -17 17 -16 22 4 18 -12 55 -22 55 -14 0 -4
128 11 143 8 8 11 6 11 -9 0 -12 8 -28 18 -37 16 -15 17 -13 16 16 0 17 -7 33
-14 35 -10 4 -10 6 0 12 7 4 9 13 5 20 -5 8 -11 8 -17 2 -15 -15 -36 8 -30 30
2 10 -1 18 -7 18 -5 0 -8 -7 -5 -15 4 -8 2 -15 -4 -15 -6 0 -8 -9 -5 -20 3
-12 0 -21 -8 -21 -69 -7 -89 -7 -94 1 -11 18 -25 10 -25 -12 0 -17 -3 -19 -12
-10 -9 9 -14 7 -24 -6 -9 -12 -17 -14 -27 -7 -77 55 -96 72 -97 83 0 7 -9 12
-22 10 -13 -2 -57 3 -98 11 l-75 14 8 96 c4 53 12 104 17 114 8 13 7 17 -5 17
-13 0 -15 20 -15 120 l0 120 45 0 45 0 0 45 c0 35 -3 43 -15 39 -8 -4 -12 -10
-9 -15 9 -15 -13 -10 -26 6 -7 8 -19 15 -26 15 -11 0 -14 34 -14 183 0 180 0
183 22 184 11 1 24 7 28 14 6 8 9 8 14 0 4 -6 18 -9 32 -7 17 3 24 0 25 -12 0
-14 2 -13 9 3 l9 20 1 -20 c1 -11 4 -14 7 -7 2 6 9 10 14 6 5 -3 9 2 9 10 0 9
4 16 10 16 5 0 16 12 24 28 15 29 10 92 -7 92 -6 0 -2 7 9 16 10 8 13 13 7 9
-7 -3 -13 -1 -13 4 0 6 -8 11 -17 11 -10 0 -35 6 -57 14 l-39 13 79 12 c55 8
90 8 114 1 55 -16 81 -11 38 7 -58 23 -36 35 51 28 42 -4 77 -8 77 -9z m1954
-35 c0 -5 8 -12 18 -14 9 -3 1 -5 -18 -5 -19 0 -29 2 -22 5 6 2 10 9 6 14 -3
5 0 9 5 9 6 0 11 -4 11 -9z m118 -3 c-2 -6 -10 -14 -16 -16 -7 -2 -10 2 -6 12
7 18 28 22 22 4z m-4131 -4 c-3 -3 -12 -4 -19 -1 -8 3 -5 6 6 6 11 1 17 -2 13
-5z m4233 -2 c0 -5 -18 -9 -41 -10 -22 -1 -38 1 -35 6 6 10 76 14 76 4z
m-2473 -43 c19 -5 -1 -6 -57 -3 -47 4 -94 10 -105 15 -26 12 124 1 162 -12z
m-1555 -39 c11 0 10 -71 -1 -89 -7 -11 -10 -9 -16 8 -5 18 -9 20 -21 10 -12
-10 -14 -2 -14 50 l0 62 22 -21 c12 -11 25 -20 30 -20z m2178 -99 c0 -17 6
-20 40 -18 39 1 59 -7 46 -20 -3 -4 -41 -6 -82 -4 -63 2 -78 -1 -89 -16 -12
-16 -13 -15 -8 10 4 20 11 27 29 27 30 0 32 20 2 21 -22 1 -22 1 2 9 43 14 60
11 60 -9z m693 -18 c-7 -2 -21 -2 -30 0 -10 3 -4 5 12 5 17 0 24 -2 18 -5z
m-1604 -34 c1 11 5 10 16 -5 11 -15 14 -54 15 -176 l0 -158 -90 0 c-88 0 -90
0 -90 -24 0 -16 8 -26 23 -31 l22 -8 -22 -4 c-16 -3 -23 -12 -23 -28 0 -18 7
-24 33 -28 17 -2 34 -1 35 4 6 15 29 10 36 -7 10 -25 7 -34 -9 -34 -8 0 -16
-6 -16 -12 -1 -7 -3 -20 -4 -28 -1 -8 -3 -20 -4 -27 0 -7 -8 -10 -16 -7 -8 4
-15 1 -15 -5 0 -13 26 -15 34 -2 3 5 15 11 27 14 16 4 19 3 10 -6 -6 -6 -11
-17 -11 -25 0 -12 3 -12 16 -1 10 8 18 9 22 3 4 -6 15 -13 25 -17 10 -4 17
-17 17 -31 0 -19 -6 -25 -32 -30 -35 -6 -248 -10 -251 -4 -1 1 -1 90 1 196 3
182 4 192 23 192 15 0 19 -8 21 -37 l1 -38 4 38 4 37 48 0 c47 0 47 0 49 36 2
25 -1 33 -9 29 -6 -4 -15 -1 -20 6 -13 20 -11 29 6 29 21 0 19 27 -4 39 -14 8
-22 7 -32 -5 -7 -8 -15 -11 -18 -6 -3 4 -25 4 -49 -1 l-43 -8 7 -48 c6 -45 4
-49 -24 -70 l-31 -21 6 -188 c5 -169 12 -213 31 -210 4 0 9 -1 12 -2 17 -6 40
-7 40 -1 0 12 34 9 42 -3 5 -7 8 -6 8 4 0 13 1 13 10 0 5 -8 10 -10 10 -4 0
10 49 17 135 18 l50 1 -3 -145 c-2 -79 -4 -145 -5 -147 -2 -1 -46 7 -98 17
-51 11 -139 29 -194 41 -55 11 -118 25 -140 30 -22 6 -51 13 -65 16 -35 6 -36
10 -3 17 l28 6 -3 325 c-2 211 1 325 7 325 6 0 12 -53 14 -132 l3 -133 2 145
c2 171 20 182 25 15 l3 -110 2 123 c1 80 6 121 12 117 6 -3 13 2 17 11 6 16 7
16 14 -2 5 -11 8 13 8 60 1 65 3 77 16 72 10 -3 15 1 16 12 1 13 2 13 7 -3 l5
-20 8 20 c6 17 8 17 8 3 1 -10 7 -18 15 -18 8 0 17 -6 19 -12 3 -7 6 1 7 17 1
26 3 27 10 10 8 -18 9 -18 10 5 2 18 4 20 7 8 2 -10 9 -18 14 -18 6 0 8 4 4 9
-3 5 -1 12 5 16 6 4 11 -9 11 -32 l2 -38 7 40 7 40 3 -35 3 -35 7 35 c6 30 8
31 10 10 2 -24 3 -23 10 5 7 29 9 28 23 -15 3 -8 6 1 7 20 2 32 3 33 10 10 7
-21 8 -22 9 -5 1 17 3 17 11 5 8 -12 10 -11 10 8 0 22 1 22 25 6 24 -16 25
-16 26 7 l1 24 8 -25 c4 -14 8 -19 9 -11z m904 -6 c-7 -2 -19 -2 -25 0 -7 3
-2 5 12 5 14 0 19 -2 13 -5z m-2403 -129 c0 -11 -5 -14 -16 -10 -9 3 -29 6
-45 6 -18 0 -28 4 -24 10 3 6 24 10 46 10 29 0 39 -4 39 -16z m979 -111 c7
-52 9 -58 10 -26 0 23 6 45 11 48 6 4 11 -39 12 -122 1 -107 3 -117 8 -63 4
36 6 -50 6 -190 0 -176 -2 -221 -6 -145 l-6 110 -2 -107 c-3 -138 -21 -155
-24 -21 l-2 98 -3 -97 c-4 -105 -20 -132 -26 -45 l-3 52 -2 -52 c-1 -29 -6
-53 -12 -53 -5 0 -11 24 -12 53 l-2 52 -3 -47 c-2 -27 -8 -48 -14 -48 -5 0 -9
89 -9 220 0 133 4 220 10 220 5 0 11 -28 13 -62 2 -39 4 -20 5 50 2 110 17
153 25 70 2 -24 4 8 5 71 1 63 5 112 8 109 3 -4 9 -37 13 -75z m2778 -15 c-3
-7 -5 -2 -5 12 0 14 2 19 5 13 2 -7 2 -19 0 -25z m-2840 -45 c-3 -10 -5 -4 -5
12 0 17 2 24 5 18 2 -7 2 -21 0 -30z m-707 -33 c0 -22 -4 -40 -10 -40 -5 0
-10 18 -10 40 0 22 5 40 10 40 6 0 10 -18 10 -40z m670 20 c0 -5 -4 -10 -10
-10 -5 0 -10 5 -10 10 0 6 5 10 10 10 6 0 10 -4 10 -10z m147 -12 c-3 -8 -6
-5 -6 6 -1 11 2 17 5 13 3 -3 4 -12 1 -19z m-147 -48 c0 -16 -4 -30 -10 -30
-5 0 -10 14 -10 30 0 17 5 30 10 30 6 0 10 -13 10 -30z m4267 -112 c-2 -24 -4
-5 -4 42 0 47 2 66 4 43 2 -24 2 -62 0 -85z m193 -148 c0 -96 -13 -120 -24
-44 -11 83 -8 134 9 134 12 0 15 -17 15 -90z m-5240 10 c0 -5 -2 -10 -4 -10
-3 0 -8 5 -11 10 -3 6 -1 10 4 10 6 0 11 -4 11 -10z m50 0 c0 -5 -9 -10 -20
-10 -11 0 -20 5 -20 10 0 6 9 10 20 10 11 0 20 -4 20 -10z m0 -69 c0 -17 -18
-21 -24 -6 -3 9 0 15 9 15 8 0 15 -4 15 -9z m3760 -36 c7 -8 9 -15 6 -15 -4 0
-14 7 -22 15 -9 8 -11 15 -6 15 5 0 15 -7 22 -15z m-3848 -35 c4 0 8 -4 8 -10
0 -5 -9 -10 -20 -10 -16 0 -20 6 -19 33 0 30 1 31 11 10 6 -13 15 -23 20 -23z
m82 22 c3 -5 1 -22 -4 -38 -4 -16 -9 -22 -9 -14 -1 8 -4 25 -7 38 -6 21 9 32
20 14z m6 -83 c0 -5 -12 -6 -27 -3 -42 10 -47 21 -8 16 19 -2 35 -8 35 -13z
m3804 -6 c4 -10 4 -14 0 -10 -4 4 -14 1 -22 -6 -13 -11 -14 -9 -1 11 17 26 15
26 23 5z m-44 -67 c0 -2 -8 -10 -17 -17 -16 -13 -17 -12 -4 4 13 16 21 21 21
13z m80 -24 c0 -5 -7 -9 -15 -9 -8 0 -15 4 -15 9 0 4 7 8 15 8 8 0 15 -4 15
-8z m-2225 -22 c-3 -5 -11 -10 -16 -10 -6 0 -7 5 -4 10 3 6 11 10 16 10 6 0 7
-4 4 -10z m2465 -32 c0 -19 -16 -5 -17 14 -2 18 0 20 7 8 5 -8 10 -18 10 -22z
m-2850 -4 c0 -2 -13 -4 -30 -4 -16 0 -30 4 -30 8 0 5 14 7 30 4 17 -2 30 -6
30 -8z m2565 -12 c-11 -2 -24 -8 -29 -13 -19 -17 -29 -9 -12 10 11 12 24 17
39 13 21 -6 21 -6 2 -10z m1202 -74 c-2 -13 -4 -3 -4 22 0 25 2 35 4 23 2 -13
2 -33 0 -45z m-767 2 c0 -5 -4 -10 -10 -10 -5 0 -10 5 -10 10 0 6 5 10 10 10
6 0 10 -4 10 -10z m-630 -10 c0 -5 -4 -10 -10 -10 -5 0 -10 5 -10 10 0 6 5 10
10 10 6 0 10 -4 10 -10z m-50 -10 c0 -5 -5 -10 -11 -10 -5 0 -7 5 -4 10 3 6 8
10 11 10 2 0 4 -4 4 -10z m-1740 -14 c0 -8 3 -21 6 -30 4 -12 -1 -14 -25 -11
-35 5 -42 -10 -9 -18 12 -4 19 -9 16 -12 -9 -9 -45 12 -52 30 -3 9 -2 13 4 10
9 -6 14 8 11 28 -2 15 18 6 22 -10 4 -14 5 -12 6 5 1 24 21 31 21 8z m2422
-51 c2 -26 -1 -45 -7 -45 -5 0 -10 20 -11 45 -1 58 13 58 18 0z m-3420 -31
c31 -44 112 -197 122 -231 9 -30 -7 -29 -37 1 -20 20 -25 21 -33 9 -14 -22
-154 -15 -154 7 0 4 15 11 33 15 30 7 30 8 7 12 -14 2 -43 8 -65 14 -34 10
-37 13 -20 20 19 8 19 8 -2 15 -13 3 -23 11 -23 16 0 5 -14 14 -31 20 -20 7
-27 13 -19 18 9 6 7 10 -6 14 -11 3 -23 6 -27 5 -9 0 -37 34 -32 39 2 2 35
-13 75 -33 40 -20 79 -34 87 -31 8 3 12 2 8 -3 -5 -9 87 -71 106 -71 5 0 8 -4
4 -9 -3 -6 4 -9 15 -8 30 2 24 14 -11 22 -33 8 -33 13 0 20 11 2 21 -1 21 -6
0 -6 5 -7 10 -4 15 9 0 27 -17 21 -12 -5 -14 -1 -8 21 6 25 5 26 -7 10 -12
-16 -13 -15 -13 12 0 16 2 28 5 26 3 -2 12 1 20 7 12 8 12 9 -2 4 -14 -4 -18
0 -18 19 0 14 -6 25 -12 25 -10 0 -9 3 1 9 10 7 8 12 -10 26 -13 9 -17 15 -9
13 8 -3 27 -22 42 -44z m-362 11 c17 -11 1 -25 -28 -25 -21 0 -24 2 -12 10 13
8 13 10 -2 10 -9 0 -19 4 -23 10 -6 10 47 6 65 -5z m270 -58 c0 -7 -38 -6 -88
2 -2 1 0 6 3 11 4 6 3 10 -2 9 -4 -1 -21 2 -38 7 l-30 8 35 6 c35 6 118 -25
120 -43z m-30 49 c0 -3 -4 -8 -10 -11 -5 -3 -10 -1 -10 4 0 6 5 11 10 11 6 0
10 -2 10 -4z m3480 -6 c0 -5 -5 -10 -11 -10 -5 0 -7 5 -4 10 3 6 8 10 11 10 2
0 4 -4 4 -10z m-3382 -35 c-3 -3 -9 2 -12 12 -6 14 -5 15 5 6 7 -7 10 -15 7
-18z m997 -48 c1 -34 5 -71 9 -82 4 -11 -6 1 -23 27 -17 27 -31 54 -31 62 0 8
-6 16 -12 18 -9 3 -8 9 4 21 15 15 16 15 23 -6 7 -21 8 -20 12 6 7 46 17 22
18 -46z m-1005 17 c0 -9 -10 -14 -27 -13 -34 1 -86 17 -61 18 9 1 24 4 34 8
12 5 15 3 9 -6 -5 -9 -2 -12 11 -9 11 2 18 10 16 17 -1 7 2 10 8 6 5 -3 10
-13 10 -21z m3452 9 c-5 -10 -7 -25 -5 -33 3 -11 1 -11 -10 2 -8 10 -16 16
-19 13 -2 -3 -5 2 -5 10 0 8 4 12 8 9 4 -2 10 0 14 6 11 18 26 11 17 -7z
m-3458 -55 c16 -19 17 -20 1 -15 -9 4 -20 7 -24 7 -4 0 -8 7 -8 15 0 21 9 19
31 -7z m2951 12 c3 -6 -1 -7 -9 -4 -18 7 -21 14 -7 14 6 0 13 -4 16 -10z
m2847 -17 c4 -2 -6 -32 -24 -66 -26 -53 -32 -59 -39 -42 -4 11 -8 44 -8 73
l-1 54 33 -7 c17 -4 35 -9 39 -12z m-2472 -3 c0 -5 -2 -10 -4 -10 -3 0 -8 5
-11 10 -3 6 -1 10 4 10 6 0 11 -4 11 -10z m-80 -142 c-9 -45 -14 -53 -30 -43
-8 5 -7 14 4 31 10 15 14 37 11 61 -4 36 -3 37 9 14 8 -15 10 -37 6 -63z m967
60 c-3 -8 -6 -5 -6 6 -1 11 2 17 5 13 3 -3 4 -12 1 -19z m-1029 -43 c-9 -9
-30 14 -23 25 6 9 10 8 17 -4 6 -10 8 -19 6 -21z m-3015 -35 c12 0 16 4 11 13
-4 6 4 2 17 -9 13 -12 63 -36 112 -54 48 -18 87 -37 87 -43 0 -6 3 -8 6 -4 9
9 118 -35 276 -111 79 -38 168 -77 198 -87 105 -34 155 -62 204 -114 26 -29
46 -54 43 -57 -8 -8 -75 55 -82 77 -4 11 -9 18 -12 15 -3 -3 -19 4 -36 16 -18
13 -43 21 -59 20 -38 -3 -108 16 -108 29 0 6 -4 8 -8 5 -5 -3 -20 1 -35 9 -14
7 -46 15 -69 17 -24 2 -41 7 -40 12 5 13 -19 26 -50 26 -40 0 -63 11 -46 21
10 7 9 9 -4 9 -10 0 -38 10 -63 22 -37 18 -42 24 -28 30 14 5 12 7 -9 7 -16 1
-28 7 -28 14 0 7 -10 14 -22 14 -13 1 -28 9 -34 18 -6 8 -16 15 -21 15 -23 0
-169 52 -184 66 -8 8 -23 14 -31 14 -9 0 -19 8 -23 18 -5 14 -4 15 6 5 7 -7
21 -13 32 -13z m1337 -10 c0 -29 -2 -30 -44 -30 -24 0 -57 7 -72 15 -27 14
-27 15 -6 15 12 0 22 4 22 9 0 10 27 17 73 20 24 1 27 -3 27 -29z m1677 16
c-3 -8 -1 -17 6 -20 9 -3 9 -5 0 -5 -15 -1 -26 16 -18 29 9 15 18 12 12 -4z
m99 -11 c14 -13 13 -16 -8 -24 -15 -6 -24 -5 -27 2 -2 6 1 13 8 15 6 2 9 8 5
13 -8 14 6 10 22 -6z m-3811 -161 c58 -41 105 -78 105 -81 0 -3 -8 1 -19 8
-10 8 -47 34 -82 58 -95 65 -239 172 -239 177 0 5 75 -47 235 -162z m1813 124
c-3 -7 -14 -14 -26 -16 -14 -2 -22 -11 -22 -23 0 -10 -4 -19 -10 -19 -16 0
-12 32 7 52 18 20 57 25 51 6z m1782 -47 c0 -15 -18 -23 -95 -45 -99 -27 -125
-31 -125 -18 1 21 24 33 115 55 55 14 101 26 103 26 1 1 2 -7 2 -18z m134 -26
c4 -19 11 -35 16 -35 5 0 15 -6 22 -13 7 -7 27 -19 43 -27 l30 -14 -25 -4
c-35 -6 -119 15 -158 38 -41 25 -41 52 1 73 50 25 64 22 71 -18z m2354 10 c89
-7 92 -8 86 -31 -5 -19 1 -26 35 -43 48 -25 65 -27 57 -5 -3 9 -9 28 -12 42
l-7 27 21 -21 c17 -18 19 -31 16 -90 -6 -85 -18 -162 -29 -172 -4 -4 -4 20 0
54 l7 61 -49 6 c-26 4 -89 9 -140 13 -105 8 -103 5 -103 113 0 49 3 62 14 58
7 -3 54 -8 104 -12z m-2954 -120 c88 -25 161 -47 163 -49 3 -2 -21 -10 -52
-17 -45 -10 -54 -15 -43 -23 24 -18 38 -52 38 -92 0 -21 5 -52 11 -69 14 -39
6 -78 -22 -104 -24 -22 -30 -21 -196 39 l-93 33 0 169 c0 157 1 169 18 164 9
-3 89 -26 176 -51z m-1479 35 c-3 -5 -12 -7 -20 -3 -21 7 -19 13 6 13 11 0 18
-4 14 -10z m1059 -6 c14 -5 16 -29 16 -156 l0 -149 -35 -15 c-19 -7 -45 -14
-57 -14 -21 -1 100 -59 155 -76 75 -22 508 -181 516 -190 12 -11 -10 -13 -35
-3 -30 12 -36 13 -117 28 -26 4 -53 13 -59 19 -7 7 -19 12 -27 12 -13 0 -15
-11 -13 -62 5 -79 -9 -69 -19 14 -4 33 -13 64 -21 69 -33 21 -114 29 -178 19
-36 -6 -100 -15 -143 -20 -43 -5 -95 -14 -115 -19 -20 -5 -75 -13 -121 -16
-64 -6 -85 -4 -92 6 -5 9 1 17 23 26 24 10 28 16 19 26 -6 8 -10 16 -8 18 1 3
-12 -11 -30 -31 -29 -31 -32 -33 -33 -14 0 22 -22 48 -32 39 -3 -3 -5 5 -4 17
0 13 -4 22 -11 21 -7 -2 -10 7 -7 22 3 18 0 25 -11 25 -9 0 -14 4 -10 9 3 5
-3 12 -13 15 -10 4 -19 13 -20 21 -1 8 -3 22 -4 30 -1 8 -7 15 -14 15 -7 0
-14 5 -16 11 -2 5 -10 11 -18 12 -8 2 -21 7 -29 11 -9 6 -12 5 -8 0 3 -5 -3
-10 -13 -10 -10 0 -16 4 -14 8 3 4 1 8 -5 8 -5 0 -15 -8 -20 -17 -9 -16 -10
-16 -11 5 0 17 -6 22 -26 22 -14 0 -23 4 -20 8 6 10 -30 9 -40 -1 -3 -3 -17 1
-30 9 -13 9 -29 12 -35 8 -8 -4 -9 -3 -5 4 5 8 0 12 -13 12 -12 0 -21 5 -21
11 0 5 -4 8 -9 5 -5 -4 -21 -2 -36 4 -18 7 -33 7 -48 -2 -20 -10 -21 -10 -8 6
12 14 12 16 -1 11 -8 -3 -25 -1 -39 5 -20 8 -15 10 26 6 151 -14 244 -34 402
-87 77 -25 102 -40 155 -86 35 -31 76 -78 91 -105 15 -27 34 -51 42 -54 15 -6
326 41 358 54 12 5 -3 9 -39 10 -40 2 -61 7 -67 17 -4 9 -13 13 -18 9 -17 -10
-81 17 -75 32 4 10 -2 14 -19 14 -13 0 -27 4 -30 10 -3 5 -16 9 -28 9 -41 -1
-87 16 -115 42 -36 34 -101 69 -129 69 -12 0 -23 3 -25 8 -5 11 -100 42 -130
42 -16 0 -28 4 -28 9 0 4 -12 7 -27 5 -16 -2 -20 -1 -10 2 9 3 17 9 17 14 0 5
-8 11 -17 14 -22 6 28 1 79 -9 26 -5 60 0 125 19 48 15 117 36 153 46 36 11
76 20 88 20 12 0 22 5 22 11 0 5 -4 7 -10 4 -5 -3 -10 -1 -10 4 0 6 13 11 28
11 39 0 123 30 116 41 -6 10 17 12 40 3z m1211 -14 c-3 -5 -16 -10 -28 -10
-18 0 -19 2 -7 10 20 13 43 13 35 0z m55 -10 c13 -9 13 -10 0 -10 -8 0 -22 5
-30 10 -13 9 -13 10 0 10 8 0 22 -5 30 -10z m-3839 -47 c13 -16 12 -17 -3 -4
-10 7 -18 15 -18 17 0 8 8 3 21 -13z m1572 -100 c-7 -2 -19 -2 -25 0 -7 3 -2
5 12 5 14 0 19 -2 13 -5z m1912 -3 c3 -5 2 -10 -4 -10 -5 0 -13 5 -16 10 -3 6
-2 10 4 10 5 0 13 -4 16 -10z m403 -229 c-3 -109 -6 -132 -27 -173 -14 -27
-29 -48 -34 -48 -10 0 -60 52 -94 97 -25 34 -53 103 -60 150 -3 18 -11 38 -19
44 -8 6 -14 19 -14 28 0 9 -4 21 -10 27 -5 5 -12 24 -13 40 l-4 31 139 -35
140 -35 -4 -126z m-2329 81 c6 -19 6 -32 0 -32 -5 0 -11 12 -15 28 -3 15 -8
34 -10 42 -4 11 -2 12 6 4 6 -6 14 -25 19 -42z m4728 -219 c-3 -10 -5 -2 -5
17 0 19 2 27 5 18 2 -10 2 -26 0 -35z m-3049 -114 c-3 -8 -7 -3 -11 10 -4 17
-3 21 5 13 5 -5 8 -16 6 -23z m-224 -115 c3 -8 2 -12 -4 -9 -6 3 -10 10 -10
16 0 14 7 11 14 -7z m770 -323 c7 -11 -22 -36 -31 -27 -3 3 -1 6 5 6 6 0 9 7
6 15 -6 16 11 21 20 6z"/>
<path d="M4405 3650 c-3 -5 1 -10 10 -10 9 0 13 5 10 10 -3 6 -8 10 -10 10 -2
0 -7 -4 -10 -10z"/>
<path d="M4408 3623 c7 -3 16 -2 19 1 4 3 -2 6 -13 5 -11 0 -14 -3 -6 -6z"/>
<path d="M4801 3620 c14 -31 19 -36 19 -24 0 6 -7 19 -16 30 -14 18 -14 18 -3
-6z"/>
<path d="M4851 3594 c0 -11 3 -14 6 -6 3 7 2 16 -1 19 -3 4 -6 -2 -5 -13z"/>
<path d="M4790 3587 c0 -22 27 -28 42 -9 10 12 10 14 0 8 -7 -4 -19 -2 -27 4
-12 10 -15 9 -15 -3z"/>
<path d="M4820 3520 c-12 -7 -12 -12 -3 -21 15 -15 26 -7 21 15 -2 11 -7 13
-18 6z"/>
<path d="M3638 3513 c-10 -2 -18 -8 -18 -13 0 -4 9 -6 20 -3 11 3 20 9 20 14
0 5 -1 8 -2 8 -2 -1 -11 -3 -20 -6z"/>
<path d="M4901 3474 c0 -11 3 -14 6 -6 3 7 2 16 -1 19 -3 4 -6 -2 -5 -13z"/>
<path d="M3676 3471 c-3 -5 1 -11 9 -15 8 -3 15 -1 15 4 0 13 -18 22 -24 11z"/>
<path d="M4808 3435 c2 -14 6 -25 8 -25 2 0 4 11 4 25 0 14 -4 25 -9 25 -4 0
-6 -11 -3 -25z"/>
<path d="M4855 3441 c-3 -5 -1 -12 5 -16 5 -3 10 1 10 9 0 18 -6 21 -15 7z"/>
<path d="M4880 3396 c0 -31 6 -34 13 -6 3 11 1 23 -4 26 -5 3 -9 -6 -9 -20z"/>
<path d="M4720 3340 c0 -5 5 -10 10 -10 6 0 10 5 10 10 0 6 -4 10 -10 10 -5 0
-10 -4 -10 -10z"/>
<path d="M4832 3328 c-14 -14 -16 -28 -3 -28 9 0 24 30 18 36 -2 2 -9 -2 -15
-8z"/>
<path d="M4605 3274 c-21 -16 -5 -18 29 -5 16 6 17 9 5 13 -8 3 -23 0 -34 -8z"/>
<path d="M4665 3280 c-7 -12 2 -30 16 -30 12 0 12 27 0 35 -5 3 -12 1 -16 -5z"/>
<path d="M4722 3278 c-7 -7 -12 -18 -12 -25 0 -11 5 -11 20 -3 11 6 20 17 20
25 0 18 -12 19 -28 3z"/>
<path d="M4777 3276 c-4 -10 -5 -21 -2 -24 9 -9 17 6 13 25 -3 17 -4 17 -11
-1z"/>
<path d="M4451 3251 c-11 -7 -10 -11 6 -20 22 -11 33 -6 33 16 0 15 -18 17
-39 4z"/>
<path d="M4354 3238 c-5 -7 -3 -8 6 -3 9 5 10 2 5 -14 -4 -12 -2 -21 4 -21 6
0 11 11 11 25 0 26 -14 33 -26 13z"/>
<path d="M4591 3241 c-9 -6 -10 -11 -2 -15 13 -8 31 1 31 15 0 11 -11 11 -29
0z"/>
<path d="M4430 3199 c0 -5 5 -7 10 -4 6 3 10 8 10 11 0 2 -4 4 -10 4 -5 0 -10
-5 -10 -11z"/>
<path d="M4604 3195 c-10 -8 -14 -14 -9 -15 15 0 40 18 34 24 -3 3 -14 -1 -25
-9z"/>
<path d="M4477 3179 c-21 -24 -20 -28 9 -20 15 4 19 11 15 24 -6 16 -8 16 -24
-4z"/>
<path d="M4016 3169 c2 -4 -2 -10 -8 -12 -8 -4 -9 -6 -2 -6 6 -1 17 5 23 12 8
10 7 14 -4 14 -8 0 -12 -4 -9 -8z"/>
<path d="M4345 3170 c3 -6 -4 -10 -17 -10 -16 0 -19 -3 -10 -9 8 -5 24 -4 37
3 25 11 24 26 -1 26 -8 0 -12 -4 -9 -10z"/>
<path d="M3732 3166 c4 -5 4 -14 -2 -21 -6 -8 -1 -10 18 -9 40 2 42 3 42 16 0
9 -3 9 -12 0 -9 -9 -16 -8 -32 6 -12 9 -18 13 -14 8z"/>
<path d="M4228 3164 c-3 -3 -20 -6 -37 -6 -17 -1 -28 -5 -25 -9 2 -4 14 -7 27
-6 27 2 79 27 56 27 -9 0 -18 -3 -21 -6z"/>
<path d="M4053 3143 c9 -2 23 -2 30 0 6 3 -1 5 -18 5 -16 0 -22 -2 -12 -5z"/>
<path d="M4285 3140 c-3 -5 -1 -10 4 -10 6 0 11 5 11 10 0 6 -2 10 -4 10 -3 0
-8 -4 -11 -10z"/>
<path d="M4388 3143 c7 -3 16 -2 19 1 4 3 -2 6 -13 5 -11 0 -14 -3 -6 -6z"/>
<path d="M3828 3133 c7 -3 16 -2 19 1 4 3 -2 6 -13 5 -11 0 -14 -3 -6 -6z"/>
<path d="M4080 3111 c0 -23 16 -36 25 -21 3 5 2 10 -4 10 -6 0 -8 7 -5 15 4 8
1 15 -5 15 -6 0 -11 -9 -11 -19z"/>
<path d="M4151 3110 c-10 -5 -8 -9 4 -14 23 -8 35 -8 35 3 0 13 -25 20 -39 11z"/>
<path d="M4210 3100 c0 -13 11 -13 30 0 12 8 11 10 -7 10 -13 0 -23 -4 -23
-10z"/>
<path d="M4348 3103 c7 -3 16 -2 19 1 4 3 -2 6 -13 5 -11 0 -14 -3 -6 -6z"/>
<path d="M4928 2353 c18 -2 45 -2 60 0 15 2 0 4 -33 4 -33 0 -45 -2 -27 -4z"/>
<path d="M4533 2033 c9 -2 25 -2 35 0 9 3 1 5 -18 5 -19 0 -27 -2 -17 -5z"/>
<path d="M4695 2015 c61 -7 153 -15 205 -18 94 -5 94 -5 20 3 -153 19 -272 30
-303 29 -18 -1 18 -7 78 -14z"/>
<path d="M5008 1983 c7 -3 16 -2 19 1 4 3 -2 6 -13 5 -11 0 -14 -3 -6 -6z"/>
<path d="M5048 1983 c6 -2 18 -2 25 0 6 3 1 5 -13 5 -14 0 -19 -2 -12 -5z"/>
<path d="M4526 1781 c-3 -4 6 -6 19 -3 14 2 25 6 25 8 0 8 -39 4 -44 -5z"/>
<path d="M4528 1743 c6 -2 18 -2 25 0 6 3 1 5 -13 5 -14 0 -19 -2 -12 -5z"/>
<path d="M4000 3640 c0 -5 5 -10 11 -10 5 0 7 5 4 10 -3 6 -8 10 -11 10 -2 0
-4 -4 -4 -10z"/>
<path d="M4155 3561 c-7 -12 12 -24 25 -16 11 7 4 25 -10 25 -5 0 -11 -4 -15
-9z"/>
<path d="M2947 2795 c-13 -10 -15 -14 -5 -18 7 -3 3 -6 -10 -6 -13 -1 -20 3
-17 9 7 12 -5 13 -23 1 -18 -11 9 -33 35 -29 17 3 18 -12 21 -272 2 -151 5
-277 8 -279 12 -13 14 32 12 307 -3 287 -4 300 -21 287z"/>
<path d="M3125 2800 c-18 -8 -17 -9 8 -9 15 -1 27 4 27 9 0 12 -8 12 -35 0z"/>
<path d="M2820 2790 c0 -5 7 -10 16 -10 8 0 12 5 9 10 -3 6 -10 10 -16 10 -5
0 -9 -4 -9 -10z"/>
<path d="M2768 2783 c6 -2 18 -2 25 0 6 3 1 5 -13 5 -14 0 -19 -2 -12 -5z"/>
<path d="M3373 2773 c9 -2 23 -2 30 0 6 3 -1 5 -18 5 -16 0 -22 -2 -12 -5z"/>
<path d="M1760 2719 c0 -5 5 -7 10 -4 6 3 10 8 10 11 0 2 -4 4 -10 4 -5 0 -10
-5 -10 -11z"/>
<path d="M1997 2203 c-12 -12 -7 -22 8 -17 8 4 15 10 15 15 0 11 -14 12 -23 2z"/>
<path d="M2086 2189 c8 -8 14 -21 14 -28 0 -9 8 -11 28 -6 35 8 46 20 38 40
-4 12 -17 15 -50 13 -40 -3 -43 -5 -30 -19z"/>
<path d="M1978 2132 c-16 -3 -24 -31 -19 -69 1 -7 -6 -13 -15 -13 -12 0 -14
-3 -6 -12 5 -7 12 -24 15 -38 3 -19 5 -16 6 11 1 38 16 49 69 49 13 0 20 4 17
10 -3 5 -18 8 -33 6 -15 -2 -19 -1 -9 1 10 3 17 14 17 28 0 24 -14 34 -42 27z"/>
<path d="M2097 2113 c-15 -14 -5 -18 33 -15 22 2 40 8 40 13 0 10 -63 12 -73
2z"/>
<path d="M1865 2009 c-4 -6 -5 -12 -2 -15 2 -3 7 2 10 11 7 17 1 20 -8 4z"/>
<path d="M2915 1958 c-66 -11 -122 -21 -123 -23 -2 -2 4 -15 15 -28 15 -21 24
-24 53 -20 19 3 46 11 60 18 14 7 45 19 70 26 53 15 68 25 55 38 -6 4 -63 0
-130 -11z"/>
<path d="M2471 1939 c-11 -12 -25 -18 -33 -14 -7 3 1 -5 17 -19 17 -14 33 -26
38 -26 12 0 8 18 -9 34 -14 15 -13 17 7 24 14 6 18 11 11 16 -6 3 -20 -3 -31
-15z"/>
<path d="M2540 1940 c6 -11 15 -18 21 -14 6 4 6 11 -2 20 -17 21 -31 17 -19
-6z"/>
<path d="M2610 1956 c0 -2 7 -7 16 -10 8 -3 12 -2 9 4 -6 10 -25 14 -25 6z"/>
<path d="M2690 1956 c0 -2 7 -9 15 -16 13 -11 14 -10 9 4 -5 14 -24 23 -24 12z"/>
<path d="M1965 1920 c-19 -8 -19 -9 2 -9 12 -1 25 4 28 9 7 12 -2 12 -30 0z"/>
<path d="M2387 1906 c-4 -10 -1 -13 8 -9 8 3 12 9 9 14 -7 12 -11 11 -17 -5z"/>
<path d="M2140 1863 c0 -13 5 -23 10 -23 13 0 13 11 0 30 -8 12 -10 11 -10 -7z"/>
<path d="M2925 1866 c-16 -7 -42 -25 -56 -40 -27 -26 -27 -27 -12 -79 19 -65
63 -106 63 -58 0 10 19 38 41 61 40 41 43 42 55 25 8 -11 14 -26 15 -34 1 -9
4 -5 8 9 4 14 11 25 16 26 22 2 42 16 42 29 0 8 -4 12 -8 9 -4 -2 -10 2 -12 8
-3 8 -6 6 -6 -4 -1 -10 -4 -18 -8 -19 -5 0 -16 -2 -27 -4 -10 -2 -24 2 -31 8
-10 9 -9 14 4 25 9 7 12 11 6 10 -5 -2 -11 1 -12 5 -2 9 -34 36 -43 36 -3 0
-18 -6 -35 -13z"/>
<path d="M2731 1834 c0 -11 3 -14 6 -6 3 7 2 16 -1 19 -3 4 -6 -2 -5 -13z"/>
<path d="M2561 1816 c-17 -21 -7 -33 30 -38 25 -4 29 -3 17 6 -8 6 -19 19 -24
29 -9 16 -12 17 -23 3z"/>
<path d="M3271 1744 c-12 -24 -21 -59 -21 -78 0 -34 1 -35 48 -42 26 -4 55 -7
65 -5 9 1 17 -2 17 -7 0 -5 14 -9 30 -10 17 0 28 3 25 7 -5 8 2 8 89 -5 40 -6
50 -4 58 9 5 10 19 18 31 18 17 1 18 2 4 6 -13 3 -15 11 -10 31 6 24 5 26 -10
13 -28 -23 -206 -63 -194 -44 3 5 2 15 -3 23 -7 12 -10 12 -16 -3 -12 -31 -24
-17 -24 28 0 29 4 45 13 45 6 0 -3 8 -20 16 -18 9 -33 20 -33 24 0 4 -6 10
-14 13 -10 4 -21 -9 -35 -39z"/>
<path d="M2497 1745 c5 -25 17 -32 27 -16 3 4 -3 16 -13 25 -17 16 -18 15 -14
-9z"/>
<path d="M2584 1745 c-4 -8 -12 -15 -20 -15 -8 0 -14 -4 -14 -10 0 -5 -7 -7
-15 -4 -19 8 -19 -7 0 -32 20 -26 19 -40 -2 -23 -15 13 -15 12 -4 -9 12 -22
14 -22 25 -6 12 16 14 15 28 -5 l16 -23 7 31 c3 17 3 36 -1 43 -4 7 -7 25 -6
40 2 30 -5 37 -14 13z"/>
<path d="M2740 1731 c0 -6 4 -13 10 -16 6 -3 7 1 4 9 -7 18 -14 21 -14 7z"/>
<path d="M2480 1716 c0 -2 8 -10 18 -17 15 -13 16 -12 3 4 -13 16 -21 21 -21
13z"/>
<path d="M3023 1703 c-7 -2 -13 -9 -13 -15 0 -6 8 -5 18 3 15 13 16 12 3 -3
-8 -11 -9 -18 -3 -18 6 0 15 7 20 16 5 10 12 12 15 7 4 -6 -5 -21 -18 -33 -19
-18 -25 -20 -25 -8 0 9 -6 21 -14 27 -11 9 -15 8 -20 -5 -4 -10 -2 -22 3 -27
15 -15 66 -11 94 7 13 9 25 15 28 14 2 -2 3 -1 1 2 -2 3 -7 5 -10 5 -13 0 -32
16 -28 24 5 8 -33 11 -51 4z"/>
<path d="M2810 1682 c0 -11 61 -32 91 -31 19 0 14 4 -21 19 -49 21 -70 24 -70
12z"/>
<path d="M3156 1654 c-9 -23 -8 -24 19 -24 14 0 25 5 25 10 0 6 -6 9 -12 8 -7
-2 -12 3 -10 10 3 18 -15 15 -22 -4z"/>
<path d="M3085 1640 c-4 -6 5 -10 20 -10 15 0 24 4 20 10 -3 6 -12 10 -20 10
-8 0 -17 -4 -20 -10z"/>
<path d="M2650 1621 c0 -17 30 -40 45 -35 28 11 14 30 -17 25 -5 0 -8 4 -8 9
0 6 -4 10 -10 10 -5 0 -10 -4 -10 -9z"/>
<path d="M2796 1611 c-4 -5 7 -12 24 -16 32 -7 41 -32 15 -41 -21 -9 -19 -24
4 -24 38 0 51 11 45 36 -4 16 -2 24 7 24 9 1 7 6 -5 15 -22 17 -82 20 -90 6z"/>
<path d="M2620 1600 c0 -6 7 -10 15 -10 8 0 15 2 15 4 0 2 -7 6 -15 10 -8 3
-15 1 -15 -4z"/>
<path d="M2730 1596 c0 -17 5 -21 45 -30 l30 -8 -24 26 c-27 29 -51 34 -51 12z"/>
<path d="M2977 1569 c7 -7 15 -10 18 -7 3 3 -2 9 -12 12 -14 6 -15 5 -6 -5z"/>
<path d="M2912 1510 c0 -19 2 -27 5 -17 2 9 2 25 0 35 -3 9 -5 1 -5 -18z"/>
<path d="M3100 1482 c0 -33 4 -63 10 -67 9 -6 5 114 -5 123 -3 3 -5 -22 -5
-56z"/>
<path d="M2676 1521 c-3 -4 8 -8 23 -7 16 1 27 4 24 9 -6 10 -41 9 -47 -2z"/>
<path d="M2600 1469 c0 -5 -4 -7 -10 -4 -14 9 -12 -1 3 -13 10 -8 13 -6 14 9
1 10 0 19 -3 19 -2 0 -4 -5 -4 -11z"/>
<path d="M4045 1470 c-3 -5 1 -10 10 -10 9 0 13 5 10 10 -3 6 -8 10 -10 10 -2
0 -7 -4 -10 -10z"/>
<path d="M3478 1433 c7 -3 16 -2 19 1 4 3 -2 6 -13 5 -11 0 -14 -3 -6 -6z"/>
<path d="M3438 1423 c7 -3 16 -2 19 1 4 3 -2 6 -13 5 -11 0 -14 -3 -6 -6z"/>
<path d="M3657 1400 c-4 -16 0 -20 19 -20 24 0 29 18 9 32 -16 12 -22 9 -28
-12z"/>
<path d="M3205 1390 c-25 -27 -10 -39 16 -13 12 11 17 23 11 27 -5 3 -17 -3
-27 -14z"/>
<path d="M2651 1364 c0 -11 3 -14 6 -6 3 7 2 16 -1 19 -3 4 -6 -2 -5 -13z"/>
<path d="M2819 1368 c-5 -53 3 -104 18 -115 22 -17 26 -11 13 23 -6 16 -12 46
-12 66 0 34 -16 55 -19 26z"/>
<path d="M3957 1373 c-4 -3 -21 -6 -39 -5 -21 0 -27 -2 -19 -7 11 -7 11 -10 0
-14 -8 -3 4 -3 26 0 43 6 63 17 47 27 -5 3 -12 3 -15 -1z"/>
<path d="M3830 1350 c0 -6 7 -10 15 -10 8 0 15 2 15 4 0 2 -7 6 -15 10 -8 3
-15 1 -15 -4z"/>
<path d="M2678 1266 c-3 -67 4 -96 23 -96 6 0 7 5 3 11 -4 7 -6 37 -5 68 2 84
-16 99 -21 17z"/>
<path d="M4018 1323 c7 -3 16 -2 19 1 4 3 -2 6 -13 5 -11 0 -14 -3 -6 -6z"/>
<path d="M1541 2591 c-9 -6 -10 -11 -2 -15 6 -4 11 -16 11 -27 0 -10 6 -19 14
-19 9 0 13 7 11 20 -2 11 1 22 6 25 12 8 2 25 -14 25 -7 0 -18 -4 -26 -9z"/>
<path d="M1254 2420 c0 -52 1 -74 3 -47 2 26 2 68 0 95 -2 26 -3 4 -3 -48z"/>
<path d="M1273 2435 c0 -33 2 -45 4 -27 2 18 2 45 0 60 -2 15 -4 0 -4 -33z"/>
<path d="M1202 2340 c0 -19 2 -27 5 -17 2 9 2 25 0 35 -3 9 -5 1 -5 -18z"/>
<path d="M1473 2293 c-7 -2 -13 -19 -13 -36 0 -24 3 -28 10 -17 9 13 10 13 10
0 1 -10 5 -7 13 8 7 12 16 20 19 16 4 -3 5 2 4 13 -3 18 -21 26 -43 16z"/>
<path d="M1465 2210 c3 -5 8 -10 11 -10 2 0 4 5 4 10 0 6 -5 10 -11 10 -5 0
-7 -4 -4 -10z"/>
<path d="M1194 1969 c-3 -5 6 -9 20 -9 31 0 34 6 6 13 -11 3 -23 1 -26 -4z"/>
<path d="M1093 2255 c0 -22 2 -30 4 -17 2 12 2 30 0 40 -3 9 -5 -1 -4 -23z"/>
<path d="M1121 2214 c0 -11 3 -14 6 -6 3 7 2 16 -1 19 -3 4 -6 -2 -5 -13z"/>
<path d="M5432 2185 c0 -16 2 -22 5 -12 2 9 2 23 0 30 -3 6 -5 -1 -5 -18z"/>
<path d="M1112 1451 c0 -17 1 -31 3 -31 7 0 12 39 5 49 -4 7 -7 -1 -8 -18z"/>
<path d="M3195 900 c-3 -5 -2 -10 4 -10 5 0 13 5 16 10 3 6 2 10 -4 10 -5 0
-13 -4 -16 -10z"/>
<path d="M3030 870 l-35 -6 33 -5 c18 -3 35 -2 38 3 9 13 3 15 -36 8z"/>
<path d="M3165 860 c-3 -6 1 -7 9 -4 18 7 21 14 7 14 -6 0 -13 -4 -16 -10z"/>
<path d="M2820 685 c0 -8 4 -15 10 -15 5 0 7 7 4 15 -4 8 -8 15 -10 15 -2 0
-4 -7 -4 -15z"/>
<path d="M172 2670 c0 -14 2 -19 5 -12 2 6 2 18 0 25 -3 6 -5 1 -5 -13z"/>
<path d="M220 2620 c0 -19 -2 -71 -5 -115 -2 -44 -2 -69 1 -55 22 136 24 157
15 180 -9 24 -10 23 -11 -10z"/>
<path d="M0 2589 l0 -49 48 -1 c81 -2 127 2 136 12 6 5 -7 9 -35 10 -50 1 -90
7 -98 15 -3 3 22 4 56 3 65 -3 75 1 79 27 3 20 -4 21 -103 27 l-83 5 0 -49z"/>
<path d="M6228 2413 c7 -3 16 -2 19 1 4 3 -2 6 -13 5 -11 0 -14 -3 -6 -6z"/>
<path d="M6608 2393 c6 -2 18 -2 25 0 6 3 1 5 -13 5 -14 0 -19 -2 -12 -5z"/>
<path d="M184 2371 c4 -5 0 -12 -6 -14 -10 -4 -10 -6 0 -6 7 -1 10 -5 7 -11
-3 -5 -1 -10 4 -10 6 0 11 11 11 25 0 14 -5 25 -11 25 -5 0 -8 -4 -5 -9z"/>
<path d="M0 2335 c0 -25 1 -25 83 -23 45 1 63 3 40 5 -58 6 -58 30 0 36 23 2
5 4 -40 5 -82 2 -83 2 -83 -23z"/>
<path d="M211 2274 c0 -11 3 -14 6 -6 3 7 2 16 -1 19 -3 4 -6 -2 -5 -13z"/>
<path d="M5550 1942 c19 -11 389 -47 397 -38 4 3 -2 6 -13 6 -10 0 -55 4 -100
9 -44 6 -118 12 -165 16 -46 3 -95 8 -109 11 -17 3 -20 2 -10 -4z"/>
<path d="M6000 1902 c0 -13 51 -22 109 -21 l46 2 -40 7 c-22 4 -57 10 -77 15
-24 4 -38 3 -38 -3z"/>
<path d="M216 1893 c-3 -4 -6 -10 -6 -14 0 -11 51 -37 83 -43 14 -2 34 -9 44
-15 19 -11 15 -11 -77 4 -16 2 -30 2 -30 0 0 -11 82 -45 110 -45 18 0 29 -4
25 -10 -3 -5 -1 -10 6 -10 8 0 9 12 4 38 -4 20 -8 38 -8 38 -1 1 -19 9 -39 18
-21 9 -53 23 -72 31 -18 8 -36 11 -40 8z"/>
<path d="M6662 1881 c-10 -6 -7 -10 12 -13 16 -3 25 -1 23 5 -5 15 -20 18 -35
8z"/>
<path d="M6191 1875 c4 -4 280 -36 424 -49 33 -3 125 -13 204 -21 79 -8 146
-13 149 -10 3 3 1 6 -4 6 -18 2 -67 8 -237 28 -94 11 -208 23 -252 26 -44 3
-107 10 -140 15 -63 10 -152 13 -144 5z"/>
<path d="M6590 1876 c0 -2 7 -6 15 -10 8 -3 15 -1 15 4 0 6 -7 10 -15 10 -8 0
-15 -2 -15 -4z"/>
<path d="M6860 1838 c0 -4 7 -8 15 -8 8 0 15 4 15 8 0 5 -7 9 -15 9 -8 0 -15
-4 -15 -9z"/>
<path d="M5585 1431 c11 -4 47 -11 80 -14 45 -5 51 -4 25 3 -53 13 -129 21
-105 11z"/>
<path d="M5748 1403 c7 -3 16 -2 19 1 4 3 -2 6 -13 5 -11 0 -14 -3 -6 -6z"/>
<path d="M5888 1373 c6 -2 18 -2 25 0 6 3 1 5 -13 5 -14 0 -19 -2 -12 -5z"/>
<path d="M6043 1343 c9 -2 23 -2 30 0 6 3 -1 5 -18 5 -16 0 -22 -2 -12 -5z"/>
<path d="M6258 1303 c6 -2 18 -2 25 0 6 3 1 5 -13 5 -14 0 -19 -2 -12 -5z"/>
<path d="M5542 1141 c-10 -6 -9 -10 7 -14 14 -3 21 0 21 9 0 16 -9 18 -28 5z"/>
<path d="M5217 1119 c7 -7 15 -10 18 -7 3 3 -2 9 -12 12 -14 6 -15 5 -6 -5z"/>
<path d="M5965 580 c-3 -5 -1 -10 4 -10 6 0 11 5 11 10 0 6 -2 10 -4 10 -3 0
-8 -4 -11 -10z"/>
<path d="M6188 523 c7 -3 16 -2 19 1 4 3 -2 6 -13 5 -11 0 -14 -3 -6 -6z"/>
<path d="M6238 513 c7 -3 16 -2 19 1 4 3 -2 6 -13 5 -11 0 -14 -3 -6 -6z"/>
<path d="M6598 503 c7 -3 16 -2 19 1 4 3 -2 6 -13 5 -11 0 -14 -3 -6 -6z"/>
<path d="M5438 473 c6 -2 18 -2 25 0 6 3 1 5 -13 5 -14 0 -19 -2 -12 -5z"/>
<path d="M6155 461 c-6 -11 13 -26 22 -17 4 3 1 6 -6 6 -7 0 -9 5 -6 10 3 6 4
10 1 10 -3 0 -7 -4 -11 -9z"/>
<path d="M6118 453 c7 -3 16 -2 19 1 4 3 -2 6 -13 5 -11 0 -14 -3 -6 -6z"/>
<path d="M6468 453 c12 -2 30 -2 40 0 9 3 -1 5 -23 4 -22 0 -30 -2 -17 -4z"/>
<path d="M6683 412 c-23 -26 -54 -63 -69 -82 -16 -19 -34 -39 -42 -43 -7 -5
-9 -13 -6 -19 5 -8 -3 -9 -24 -5 -19 4 -34 2 -38 -5 -4 -6 -3 -8 4 -5 5 4 17
4 26 1 29 -11 -1 -34 -37 -28 -28 4 -29 3 -9 -6 20 -8 21 -13 11 -31 -6 -12
-23 -34 -38 -49 -36 -36 -71 -82 -71 -94 0 -5 -7 -18 -17 -28 -13 -14 -13 -18
-2 -18 8 0 20 9 27 20 7 12 23 20 40 20 23 1 24 2 10 11 -24 13 -23 26 2 34
11 3 20 12 20 19 0 8 6 18 13 23 17 14 70 26 63 14 -3 -5 2 -8 11 -7 9 2 19 8
21 14 2 7 13 12 25 12 19 1 17 3 -8 14 -55 23 -7 27 69 5 53 -16 73 -25 69
-35 -3 -9 2 -14 13 -14 16 0 17 -2 4 -10 -12 -8 -9 -10 13 -10 16 0 26 -4 23
-9 -3 -5 3 -11 14 -14 11 -3 19 -11 18 -18 -2 -7 13 -21 32 -30 36 -19 66 -25
41 -10 -11 7 -5 11 22 16 19 4 40 4 46 0 6 -3 11 -2 11 4 0 5 -8 15 -17 20
-17 10 -17 10 0 11 15 0 17 12 17 120 l0 119 -37 7 c-21 4 -66 8 -100 8 -56 1
-63 -1 -92 -31 -17 -18 -31 -28 -31 -23 0 6 -12 10 -27 10 -14 0 -23 3 -20 7
4 3 2 12 -4 20 -9 10 -6 13 17 13 24 1 26 2 12 11 -14 8 -15 14 -6 35 10 21
16 24 42 18 l31 -6 -22 19 c-17 15 -19 23 -11 31 7 7 9 14 7 17 -3 3 -24 -17
-46 -43z m-23 -182 c-14 -4 -34 -8 -45 -8 -16 0 -15 2 5 8 14 4 34 8 45 8 16
0 15 -2 -5 -8z m75 -19 c9 -15 -27 -30 -58 -24 -35 7 -45 22 -12 19 13 -2 22
1 19 5 -3 5 6 9 20 9 14 0 27 -4 31 -9z m-170 -51 c8 -13 -5 -13 -25 0 -13 8
-13 10 2 10 9 0 20 -4 23 -10z m325 -102 c10 -6 7 -7 -10 -2 -14 3 -32 11 -40
16 -10 6 -7 7 10 2 14 -3 32 -11 40 -16z"/>
<path d="M6530 440 c0 -5 7 -10 15 -10 8 0 15 5 15 10 0 6 -7 10 -15 10 -8 0
-15 -4 -15 -10z"/>
<path d="M6904 419 c-4 -7 -23 -9 -47 -6 -23 3 -55 3 -72 -1 -30 -6 -30 -6 -5
-13 l25 -7 -25 -2 c-14 -1 22 -14 80 -30 123 -35 110 -32 110 -21 0 5 -19 13
-42 17 -35 5 -39 8 -23 15 11 4 16 8 10 9 -5 0 -3 6 6 13 13 10 14 14 3 25 -9
8 -15 9 -20 1z"/>
<path d="M5278 413 c7 -3 16 -2 19 1 4 3 -2 6 -13 5 -11 0 -14 -3 -6 -6z"/>
<path d="M5508 403 c7 -3 16 -2 19 1 4 3 -2 6 -13 5 -11 0 -14 -3 -6 -6z"/>
<path d="M6245 390 c-3 -5 1 -10 10 -10 9 0 13 5 10 10 -3 6 -8 10 -10 10 -2
0 -7 -4 -10 -10z"/>
<path d="M6595 380 c-11 -13 -14 -20 -6 -20 21 0 52 21 46 31 -9 14 -20 11
-40 -11z"/>
<path d="M6428 377 c24 -7 40 -15 36 -20 -13 -12 10 -7 29 7 24 18 14 23 -53
24 l-55 1 43 -12z"/>
<path d="M6948 363 c7 -3 16 -2 19 1 4 3 -2 6 -13 5 -11 0 -14 -3 -6 -6z"/>
<path d="M5190 346 c0 -2 7 -7 16 -10 8 -3 12 -2 9 4 -6 10 -25 14 -25 6z"/>
<path d="M6567 335 c-4 -8 -12 -15 -20 -15 -7 0 -13 -8 -14 -19 -1 -14 3 -17
18 -14 10 3 16 9 13 15 -3 5 0 16 7 24 6 8 10 17 7 20 -3 3 -8 -2 -11 -11z"/>
<path d="M5238 333 c7 -3 16 -2 19 1 4 3 -2 6 -13 5 -11 0 -14 -3 -6 -6z"/>
<path d="M5618 318 c5 -5 16 -8 23 -6 8 3 3 7 -10 11 -17 4 -21 3 -13 -5z"/>
<path d="M6178 303 c7 -3 16 -2 19 1 4 3 -2 6 -13 5 -11 0 -14 -3 -6 -6z"/>
<path d="M6328 303 c6 -2 18 -2 25 0 6 3 1 5 -13 5 -14 0 -19 -2 -12 -5z"/>
<path d="M6390 295 c6 -8 9 -19 5 -25 -3 -5 -2 -10 2 -10 12 0 33 37 26 44 -4
3 -15 6 -26 6 -16 0 -17 -3 -7 -15z"/>
<path d="M5075 260 c3 -5 11 -10 16 -10 6 0 7 5 4 10 -3 6 -11 10 -16 10 -6 0
-7 -4 -4 -10z"/>
<path d="M5115 250 c3 -5 13 -10 21 -10 8 0 12 5 9 10 -3 6 -13 10 -21 10 -8
0 -12 -4 -9 -10z"/>
<path d="M5290 250 c0 -4 11 -10 25 -12 13 -3 22 -2 20 2 -7 11 -45 20 -45 10z"/>
<path d="M5458 243 c6 -2 18 -2 25 0 6 3 1 5 -13 5 -14 0 -19 -2 -12 -5z"/>
<path d="M5866 242 c-8 -13 66 -34 78 -22 7 7 2 10 -13 10 -12 0 -31 5 -41 10
-10 6 -21 6 -24 2z"/>
<path d="M5520 231 c0 -5 9 -7 20 -4 11 3 20 7 20 9 0 2 -9 4 -20 4 -11 0 -20
-4 -20 -9z"/>
<path d="M6095 230 c-3 -5 1 -10 10 -10 9 0 13 5 10 10 -3 6 -8 10 -10 10 -2
0 -7 -4 -10 -10z"/>
<path d="M6288 223 c6 -2 18 -2 25 0 6 3 1 5 -13 5 -14 0 -19 -2 -12 -5z"/>
<path d="M6345 220 c-19 -8 -19 -9 2 -9 12 -1 25 4 28 9 7 12 -2 12 -30 0z"/>
<path d="M6440 190 c8 -5 20 -10 25 -10 6 0 3 5 -5 10 -8 5 -19 10 -25 10 -5
0 -3 -5 5 -10z"/>
<path d="M4762 178 c-18 -18 -15 -23 17 -23 24 0 27 2 17 18 -13 20 -18 21
-34 5z"/>
<path d="M4950 170 c0 -5 5 -10 11 -10 5 0 7 5 4 10 -3 6 -8 10 -11 10 -2 0
-4 -4 -4 -10z"/>
<path d="M4990 158 c0 -14 18 -17 28 -5 8 10 6 13 -9 13 -10 0 -19 -4 -19 -8z"/>
<path d="M5170 160 c-12 -8 -11 -10 8 -10 12 0 22 5 22 10 0 13 -11 13 -30 0z"/>
<path d="M6417 156 c-4 -10 0 -12 14 -9 10 3 16 9 13 14 -8 13 -21 11 -27 -5z"/>
<path d="M4720 140 c0 -5 5 -10 10 -10 6 0 10 5 10 10 0 6 -4 10 -10 10 -5 0
-10 -4 -10 -10z"/>
<path d="M6187 140 c13 -12 120 -24 108 -12 -5 5 -34 12 -63 14 -29 3 -50 2
-45 -2z"/>
<path d="M5815 130 c26 -11 35 -12 35 -2 0 4 -12 8 -27 9 -24 1 -25 1 -8 -7z"/>
<path d="M6387 126 c-3 -6 6 -11 19 -11 29 0 32 11 5 18 -11 3 -22 0 -24 -7z"/>
<path d="M6706 125 c-9 -26 -7 -32 5 -12 6 10 9 21 6 23 -2 3 -7 -2 -11 -11z"/>
<path d="M4508 93 c7 -3 16 -2 19 1 4 3 -2 6 -13 5 -11 0 -14 -3 -6 -6z"/>
<path d="M4631 79 c-13 -10 -19 -19 -14 -19 13 0 49 27 43 33 -3 3 -16 -3 -29
-14z"/>
<path d="M4897 79 c-10 -6 -25 -8 -34 -5 -13 5 -14 4 -4 -8 10 -12 18 -13 37
-4 13 6 24 15 24 20 0 10 -1 10 -23 -3z"/>
<path d="M4810 70 c0 -5 5 -10 10 -10 6 0 10 5 10 10 0 6 -4 10 -10 10 -5 0
-10 -4 -10 -10z"/>
<path d="M5040 68 c0 -4 7 -8 15 -8 8 0 15 4 15 8 0 5 -7 9 -15 9 -8 0 -15 -4
-15 -9z"/>
<path d="M5486 71 c-4 -7 -5 -15 -2 -18 9 -9 19 4 14 18 -4 11 -6 11 -12 0z"/>
<path d="M6358 63 c7 -3 16 -2 19 1 4 3 -2 6 -13 5 -11 0 -14 -3 -6 -6z"/>
<path d="M4590 51 c0 -7 -4 -9 -10 -6 -5 3 -10 1 -10 -4 0 -6 4 -11 9 -11 13
0 25 20 17 27 -3 4 -6 1 -6 -6z"/>
<path d="M5268 44 c24 -11 38 -12 52 -4 11 6 20 12 20 13 0 1 -24 3 -53 3
l-52 2 33 -14z"/>
<path d="M5670 50 c8 -5 22 -10 30 -10 13 0 13 1 0 10 -8 5 -22 10 -30 10 -13
0 -13 -1 0 -10z"/>
<path d="M5912 44 c-7 -8 -8 -14 -3 -14 10 0 25 19 20 25 -2 1 -10 -3 -17 -11z"/>
<path d="M5006 35 c-11 -8 -15 -15 -9 -15 6 0 16 7 23 15 16 19 11 19 -14 0z"/>
<path d="M5725 40 c3 -5 13 -10 21 -10 8 0 12 4 9 10 -3 6 -13 10 -21 10 -8 0
-12 -4 -9 -10z"/>
<path d="M6114 41 c4 -5 14 -8 24 -7 9 2 22 -4 28 -13 10 -13 14 -13 29 -1 17
14 16 15 -11 21 -45 10 -76 10 -70 0z"/>
<path d="M6328 33 c7 -3 16 -2 19 1 4 3 -2 6 -13 5 -11 0 -14 -3 -6 -6z"/>
<path d="M6478 33 c7 -3 16 -2 19 1 4 3 -2 6 -13 5 -11 0 -14 -3 -6 -6z"/>
<path d="M5426 15 c-3 -8 -1 -15 4 -15 13 0 22 18 11 24 -5 3 -11 -1 -15 -9z"/>
</g>
</svg>
