<?xml version="1.0" encoding="UTF-8"?>
<svg version="1.1" xmlns="http://www.w3.org/2000/svg" width="72" height="65">
<path d="M0 0 C23.76 0 47.52 0 72 0 C72 21.45 72 42.9 72 65 C48.24 65 24.48 65 0 65 C0 43.55 0 22.1 0 0 Z " fill="#EBEDED" transform="translate(0,0)"/>
<path d="M0 0 C8.91 0 17.82 0 27 0 C23.92351851 1.53824075 22.19261267 2.26391398 19 2.875 C15.31194817 3.74035294 13.38201077 4.95102621 11 8 C9.30864753 11.38270494 9.65296598 15.22006273 9.4765625 18.95703125 C9 22 9 22 7.48828125 24.390625 C5.50039556 27.87594689 5.52263201 31.03406112 5.5625 34.9375 C5.54251953 35.62779297 5.52253906 36.31808594 5.50195312 37.02929688 C5.50682073 42.16461855 6.77775075 45.05907724 10 49 C15.01535736 52.58239811 20.05606586 52.67875268 26 52 C30.86896562 50.53012359 33.56611446 47.97468724 36.09765625 43.671875 C37.99931738 38.04098231 37.34355843 31.86339728 37 26 C37.495 26.99 37.495 26.99 38 28 C38.61875 28.2475 39.2375 28.495 39.875 28.75 C42.91325447 30.53720851 43.6705389 32.80929335 45 36 C45 36.66 45 37.32 45 38 C45.66 38 46.32 38 47 38 C47.66 36.68 48.32 35.36 49 34 C49.33 34.99 49.66 35.98 50 37 C52.31 37.33 54.62 37.66 57 38 C57 36.68 57 35.36 57 34 C57.66 34 58.32 34 59 34 C59.33 34.99 59.66 35.98 60 37 C60.69867188 37.06058594 61.39734375 37.12117188 62.1171875 37.18359375 C63.02726562 37.26738281 63.93734375 37.35117187 64.875 37.4375 C65.77992187 37.51871094 66.68484375 37.59992187 67.6171875 37.68359375 C70 38 70 38 72 39 C72 47.58 72 56.16 72 65 C48.24 65 24.48 65 0 65 C0 43.55 0 22.1 0 0 Z " fill="#EDEEEE" transform="translate(0,0)"/>
<path d="M0 0 C3.22807594 1.67381715 5.316049 3.048416 7.4375 6 C8.1049494 8.37315341 7.82041075 9.70284991 7 12 C3.24391399 10.74797133 2.85315035 9.36936427 1 6 C-0.22321622 4.56079099 -0.22321622 4.56079099 -3.875 4.6875 C-7.19983078 4.72971601 -7.19983078 4.72971601 -9.9375 6.5625 C-11.29725132 9.6819295 -11.67563916 12.62664725 -12 16 C-11.34 15.67 -10.68 15.34 -10 15 C-4.44468752 14.4927035 0.41830236 14.23739578 5.5 16.6875 C9.72017141 20.59115856 12.66408395 23.76080949 13.2734375 29.63671875 C13.51262616 36.82157825 12.81927725 41.5197933 8 47 C3.60931154 51.00327477 -0.69030098 51.35264182 -6.4296875 51.27734375 C-11.64490974 50.714607 -14.83000916 48.42717801 -18.16796875 44.35546875 C-20.31370961 40.42542312 -20.56368579 37.29701551 -20.4375 32.9375 C-20.44458984 32.24333984 -20.45167969 31.54917969 -20.45898438 30.83398438 C-20.40266548 26.27215397 -19.3916871 23.78321414 -17 20 C-16.53891604 17.05067045 -16.53891604 17.05067045 -16.5 14 C-16.35995882 9.4253213 -15.686366 6.74522559 -13 3 C-9.05101934 -0.27201255 -4.98263803 -0.8873191 0 0 Z " fill="#C6CACD" transform="translate(25,2)"/>
<path d="M0 0 C3.22807594 1.67381715 5.316049 3.048416 7.4375 6 C8.1049494 8.37315341 7.82041075 9.70284991 7 12 C3.24391399 10.74797133 2.85315035 9.36936427 1 6 C-0.22321622 4.56079099 -0.22321622 4.56079099 -3.875 4.6875 C-7.19983078 4.72971601 -7.19983078 4.72971601 -9.9375 6.5625 C-11.29725132 9.6819295 -11.67563916 12.62664725 -12 16 C-11.34 15.67 -10.68 15.34 -10 15 C-7.6670134 14.95977609 -5.33293334 14.95679753 -3 15 C-3 15.99 -3 16.98 -3 18 C-3.61488281 18.24234375 -4.22976562 18.4846875 -4.86328125 18.734375 C-5.67152344 19.06953125 -6.47976562 19.4046875 -7.3125 19.75 C-8.51326172 20.23726562 -8.51326172 20.23726562 -9.73828125 20.734375 C-12.40337436 22.22572244 -13.53937747 23.31523668 -15 26 C-15.47475101 29.10297954 -15.47475101 29.10297954 -15.375 32.4375 C-15.38273438 33.54996094 -15.39046875 34.66242187 -15.3984375 35.80859375 C-14.96272436 39.29857056 -14.05522396 41.17850735 -12 44 C-9.0071014 46.32781002 -5.76200326 46.42682319 -2.02734375 46.30859375 C1.4735718 45.77569909 3.40917311 44.34981974 6 42 C7.30965106 39.69204888 8.12520123 37.52719644 9 35 C9.99 35 10.98 35 12 35 C12.50537432 40.30643041 11.30655751 42.86680312 8 47 C3.51673373 50.93984006 -0.64450008 51.35324271 -6.4296875 51.27734375 C-11.64490974 50.714607 -14.83000916 48.42717801 -18.16796875 44.35546875 C-20.31370961 40.42542312 -20.56368579 37.29701551 -20.4375 32.9375 C-20.44458984 32.24333984 -20.45167969 31.54917969 -20.45898438 30.83398438 C-20.40266548 26.27215397 -19.3916871 23.78321414 -17 20 C-16.53891604 17.05067045 -16.53891604 17.05067045 -16.5 14 C-16.35995882 9.4253213 -15.686366 6.74522559 -13 3 C-9.05101934 -0.27201255 -4.98263803 -0.8873191 0 0 Z " fill="#5C5D5F" transform="translate(25,2)"/>
<path d="M0 0 C0.66 0 1.32 0 2 0 C2.33 0.99 2.66 1.98 3 3 C3.69867188 3.06058594 4.39734375 3.12117188 5.1171875 3.18359375 C6.02726562 3.26738281 6.93734375 3.35117187 7.875 3.4375 C8.77992187 3.51871094 9.68484375 3.59992187 10.6171875 3.68359375 C13 4 13 4 15 5 C15 13.58 15 22.16 15 31 C9.39 31 3.78 31 -2 31 C-2 22.09 -2 13.18 -2 4 C-1.34 4 -0.68 4 0 4 C0 2.68 0 1.36 0 0 Z " fill="#FEFEFE" transform="translate(57,34)"/>
<path d="M0 0 C2.64706975 1.3910092 3.95037196 2.73462164 6 5 C6 5.66 6 6.32 6 7 C5.38125 7.268125 4.7625 7.53625 4.125 7.8125 C1.7004767 8.95556848 1.7004767 8.95556848 0 12 C-0.3403125 10.7934375 -0.3403125 10.7934375 -0.6875 9.5625 C-1.75163293 6.75338666 -1.75163293 6.75338666 -4.5625 6.125 C-5.366875 6.08375 -6.17125 6.0425 -7 6 C-8.2602065 7.03756992 -8.2602065 7.03756992 -8.125 9.3125 C-8.12649225 11.90365775 -8.12649225 11.90365775 -7.375 13.875 C-6.7921701 17.17770277 -7.97602105 19.86782909 -9 23 C-6.69 23 -4.38 23 -2 23 C-2 23.33 -2 23.66 -2 24 C-5 25 -8 26 -11 27 C-15.80456349 22.31863045 -17.17604934 20.45310701 -17.375 13.75 C-17.34297153 6.51156584 -17.34297153 6.51156584 -14.625 3.25 C-10.05214198 -0.66959259 -5.88090409 -0.82728314 0 0 Z " fill="#EFF3F3" transform="translate(26,21)"/>
<path d="M0 0 C2.97418984 0.66093107 4.17278208 1.9661346 5.8984375 4.421875 C7.2109375 6.984375 7.2109375 6.984375 7.8984375 9.421875 C7.5684375 10.411875 7.2384375 11.401875 6.8984375 12.421875 C6.2384375 12.091875 5.5784375 11.761875 4.8984375 11.421875 C-0.14531569 11.11835711 -5.19416624 11.113236 -10.1015625 12.421875 C-10.40944962 8.49631424 -10.41010364 6.0261014 -8.6015625 2.484375 C-5.55563503 -0.02851516 -3.85673256 -0.25807132 0 0 Z " fill="#EDEFEF" transform="translate(23.1015625,5.578125)"/>
<path d="M0 0 C0.99 0 1.98 0 3 0 C3.50537432 5.30643041 2.30655751 7.86680312 -1 12 C-5.48480848 15.94119533 -9.63353851 16.32620877 -15.4140625 16.30078125 C-19.37111702 15.84051962 -21.7571935 14.25586539 -25 12 C-25 10.68 -25 9.36 -25 8 C-22 8 -22 8 -19.8125 9.5 C-16.16243178 11.44670305 -13.00945547 11.69182761 -9 11 C-4.93254507 9.08138918 -2.89487862 7.30837284 -1.125 3.25 C-0.75375 2.1775 -0.3825 1.105 0 0 Z " fill="#2E302F" transform="translate(34,37)"/>
<path d="M0 0 C5.56356259 0.22708419 8.33695609 1.59735312 12.51953125 5.234375 C15.91406521 9.2827374 16.23811192 13.16590759 16.125 18.3125 C16.10695313 19.38113281 16.08890625 20.44976562 16.0703125 21.55078125 C16.04710938 22.35902344 16.02390625 23.16726562 16 24 C15.67 22.68 15.34 21.36 15 20 C13.68 20.33 12.36 20.66 11 21 C10.96132813 20.00419922 10.96132813 20.00419922 10.921875 18.98828125 C10.65903722 14.89637498 10.34877454 11.69754908 8.5 8 C4.9747509 5.17980072 1.4016238 4.630147 -3 4 C-2.01 3.67 -1.02 3.34 0 3 C0 2.01 0 1.02 0 0 Z " fill="#3391B9" transform="translate(22,17)"/>
<path d="M0 0 C2.125 0.9375 2.125 0.9375 4 2 C3.175 2.721875 2.35 3.44375 1.5 4.1875 C-2.03507116 8.34170792 -1.42952558 12.86928165 -1.2734375 18.07421875 C-1.10583123 21.060137 -1.10583123 21.060137 0 24 C-1.32 24.99 -2.64 25.98 -4 27 C-6.4311565 23.24629436 -6.36706075 19.45188858 -6.375 15.125 C-6.39949219 14.43019531 -6.42398437 13.73539063 -6.44921875 13.01953125 C-6.47837471 7.85892596 -5.25512753 4.95697659 -2 1 C-1.34 0.67 -0.68 0.34 0 0 Z " fill="#4F4F51" transform="translate(11,20)"/>
<path d="M0 0 C4.55555556 0.55555556 4.55555556 0.55555556 6 2 C6.1613058 5.06481021 5.98150241 7.05549278 5 10 C4.96125079 11.66621616 4.9549714 13.33394172 5 15 C3.02 15 1.04 15 -1 15 C-0.979375 13.865625 -0.95875 12.73125 -0.9375 11.5625 C-0.58422523 8.18424326 -0.58422523 8.18424326 -2 7 C-2.1875 4.5625 -2.1875 4.5625 -2 2 C-1.34 1.34 -0.68 0.68 0 0 Z " fill="#33383B" transform="translate(19,26)"/>
<path d="M0 0 C0.66 0.33 1.32 0.66 2 1 C1.04872818 4.42457856 0.07456145 5.93431491 -2.625 8.3125 C-6.86115373 10.43057686 -9.32769752 10.32222776 -14 10 C-14 9.01 -14 8.02 -14 7 C-13.34 6.67 -12.68 6.34 -12 6 C-12.66 5.67 -13.32 5.34 -14 5 C-13.67 4.01 -13.34 3.02 -13 2 C-10.69 2 -8.38 2 -6 2 C-6 2.99 -6 3.98 -6 5 C-5.34 5 -4.68 5 -4 5 C-3.67 4.01 -3.34 3.02 -3 2 C-2.01 1.34 -1.02 0.68 0 0 Z " fill="#ACB2B4" transform="translate(31,39)"/>
<path d="M0 0 C1.48831242 0.00667405 2.97660807 0.01863442 4.46484375 0.03515625 C5.22345703 0.03966797 5.98207031 0.04417969 6.76367188 0.04882812 C8.64326246 0.06064945 10.52281274 0.07858547 12.40234375 0.09765625 C12.40234375 1.74765625 12.40234375 3.39765625 12.40234375 5.09765625 C8.85284341 6.26072068 5.84410427 6.02130674 2.15234375 5.66015625 C1.0746875 5.55832031 -0.00296875 5.45648437 -1.11328125 5.3515625 C-1.933125 5.26777344 -2.75296875 5.18398438 -3.59765625 5.09765625 C-4.16015625 3.16015625 -4.16015625 3.16015625 -4.59765625 1.09765625 C-3.59765625 0.09765625 -3.59765625 0.09765625 0 0 Z " fill="#FEFEFE" transform="translate(59.59765625,22.90234375)"/>
<path d="M0 0 C0.99 0 1.98 0 3 0 C3.50537432 5.30643041 2.30655751 7.86680312 -1 12 C-3.65799923 14.41636294 -4.35294333 15 -8 15 C-6.61839132 10.97030801 -4.64319402 8.30399253 -2 5 C-0.75983331 2.3205355 -0.75983331 2.3205355 0 0 Z " fill="#2B2C2B" transform="translate(34,37)"/>
<path d="M0 0 C5.20479932 0.40821955 8.35686861 1.13607277 12 5 C12 6.32 12 7.64 12 9 C9.53237502 8.55935268 8.14211048 8.11760867 6.1875 6.5 C3.23082521 4.47256586 0.52071423 4.33853021 -3 4 C-2.01 3.67 -1.02 3.34 0 3 C0 2.01 0 1.02 0 0 Z " fill="#2BB3DD" transform="translate(22,17)"/>
<path d="M0 0 C2.75 0.125 2.75 0.125 6 1 C8.4375 3.8125 8.4375 3.8125 10 7 C9.75 9.375 9.75 9.375 9 11 C6 10 6 10 4.5625 7.5625 C2.90447019 4.84333111 1.91563061 4.10592885 -1 3 C-0.67 2.01 -0.34 1.02 0 0 Z " fill="#545557" transform="translate(23,3)"/>
<path d="M0 0 C1.0625 1.875 1.0625 1.875 2 4 C1.67 4.66 1.34 5.32 1 6 C3.31 6 5.62 6 8 6 C8 6.33 8 6.66 8 7 C5 8 2 9 -1 10 C-2.32 8.68 -3.64 7.36 -5 6 C-4.54625 5.566875 -4.0925 5.13375 -3.625 4.6875 C-1.79975666 2.89201658 -1.79975666 2.89201658 0 0 Z " fill="#D1D7DB" transform="translate(16,38)"/>
<path d="M0 0 C3.465 1.98 3.465 1.98 7 4 C6.67 4.99 6.34 5.98 6 7 C5.01 7.33 4.02 7.66 3 8 C0.3125 6.0625 0.3125 6.0625 -2 4 C-1.34 2.68 -0.68 1.36 0 0 Z " fill="#3D3D3E" transform="translate(10,44)"/>
<path d="M0 0 C0 2.97 0 5.94 0 9 C-4.8 6.53846154 -4.8 6.53846154 -5.8125 3.8125 C-5.874375 3.214375 -5.93625 2.61625 -6 2 C-3 0 -3 0 0 0 Z " fill="#C4D5DB" transform="translate(33,28)"/>
<path d="M0 0 C0.99 0.99 1.98 1.98 3 3 C2 6 2 6 0.0625 7.0625 C-0.618125 7.371875 -1.29875 7.68125 -2 8 C-2.66 8.66 -3.32 9.32 -4 10 C-4.41176754 6.39703406 -4.1535853 5.21597933 -2 2.1875 C-1.34 1.465625 -0.68 0.74375 0 0 Z " fill="#B8BFC1" transform="translate(30,34)"/>
<path d="M0 0 C1.32 0.66 2.64 1.32 4 2 C3.67 3.32 3.34 4.64 3 6 C1.35 5.67 -0.3 5.34 -2 5 C-1.125 1.125 -1.125 1.125 0 0 Z " fill="#6B6B6B" transform="translate(61,32)"/>
<path d="M0 0 C1.98 0.495 1.98 0.495 4 1 C3.67 2.65 3.34 4.3 3 6 C1.68 5.67 0.36 5.34 -1 5 C-0.67 3.35 -0.34 1.7 0 0 Z " fill="#6A6A6A" transform="translate(67,32)"/>
<path d="M0 0 C0.99 0.33 1.98 0.66 3 1 C3 2.65 3 4.3 3 6 C1.35 5.67 -0.3 5.34 -2 5 C-1.125 1.125 -1.125 1.125 0 0 Z " fill="#676767" transform="translate(51,32)"/>
<path d="M0 0 C1.5 1.375 1.5 1.375 3 3 C3 3.66 3 4.32 3 5 C2.01 5 1.02 5 0 5 C0 8.3 0 11.6 0 15 C-0.33 15 -0.66 15 -1 15 C-1.33 11.04 -1.66 7.08 -2 3 C-1.34 3 -0.68 3 0 3 C0 2.01 0 1.02 0 0 Z " fill="#3699BF" transform="translate(34,23)"/>
<path d="M0 0 C0.66 0.33 1.32 0.66 2 1 C2 3.64 2 6.28 2 9 C1.01 9.33 0.02 9.66 -1 10 C-1.02689216 8.52093108 -1.04634621 7.04172517 -1.0625 5.5625 C-1.07410156 4.73878906 -1.08570313 3.91507813 -1.09765625 3.06640625 C-1 1 -1 1 0 0 Z " fill="#59595B" transform="translate(7,29)"/>
<path d="M0 0 C1.5625 1.25 1.5625 1.25 3 3 C2.6875 5.1875 2.6875 5.1875 2 7 C1.01 6.67 0.02 6.34 -1 6 C-1.33 4.35 -1.66 2.7 -2 1 C-1.34 0.67 -0.68 0.34 0 0 Z " fill="#4E4F50" transform="translate(30,7)"/>
<path d="M0 0 C-5.14285714 4.42857143 -5.14285714 4.42857143 -9 5 C-8 2 -8 2 -5.625 0.25 C-3 -1 -3 -1 0 0 Z " fill="#A8ABAE" transform="translate(32,44)"/>
<path d="M0 0 C0.99 0 1.98 0 3 0 C3 1.98 3 3.96 3 6 C2.01 6.33 1.02 6.66 0 7 C-0.38133299 5.0085944 -0.71325582 3.00720923 -1 1 C-0.67 0.67 -0.34 0.34 0 0 Z " fill="#253034" transform="translate(34,37)"/>
<path d="M0 0 C1.98 0 3.96 0 6 0 C6 0.99 6 1.98 6 3 C4.02 3.33 2.04 3.66 0 4 C0 2.68 0 1.36 0 0 Z " fill="#485054" transform="translate(16,17)"/>
<path d="M0 0 C1.98 0 3.96 0 6 0 C6 0.99 6 1.98 6 3 C3.69 3 1.38 3 -1 3 C-0.67 2.01 -0.34 1.02 0 0 Z " fill="#3E95B1" transform="translate(18,41)"/>
<path d="M0 0 C0.99 0.495 0.99 0.495 2 1 C2 1.66 2 2.32 2 3 C2.66 3 3.32 3 4 3 C4.33 2.01 4.66 1.02 5 0 C5.33 0.66 5.66 1.32 6 2 C5.0625 4.625 5.0625 4.625 4 7 C3.34 7 2.68 7 2 7 C1.34 4.69 0.68 2.38 0 0 Z " fill="#3C3B3A" transform="translate(43,31)"/>
<path d="M0 0 C0.99 0.99 1.98 1.98 3 3 C2.01 3.66 1.02 4.32 0 5 C-0.66 5.99 -1.32 6.98 -2 8 C-2.33 5.69 -2.66 3.38 -3 1 C-2.01 0.67 -1.02 0.34 0 0 Z " fill="#E2E4E6" transform="translate(28,25)"/>
<path d="M0 0 C2 1.25 2 1.25 4 3 C4 4.32 4 5.64 4 7 C2.68 6.67 1.36 6.34 0 6 C0 4.02 0 2.04 0 0 Z " fill="#19A5D7" transform="translate(30,19)"/>
<path d="M0 0 C0.33 1.32 0.66 2.64 1 4 C-0.98 4 -2.96 4 -5 4 C-5 3.01 -5 2.02 -5 1 C-3 0 -3 0 0 0 Z " fill="#C1C1C2" transform="translate(22,45)"/>
</svg>
