<?xml version="1.0" standalone="no"?>
<!DOCTYPE svg PUBLIC "-//W3C//DTD SVG 20010904//EN"
 "http://www.w3.org/TR/2001/REC-SVG-20010904/DTD/svg10.dtd">
<svg version="1.0" xmlns="http://www.w3.org/2000/svg"
 width="1264.000000pt" height="1264.000000pt" viewBox="0 0 1264.000000 1264.000000"
 preserveAspectRatio="xMidYMid meet">

<g transform="translate(0.000000,1264.000000) scale(0.100000,-0.100000)"
fill="#000000" stroke="none">
<path d="M6110 12310 c-197 -22 -396 -77 -585 -161 -482 -215 -840 -602 -1010
-1092 -88 -252 -95 -334 -95 -1169 l0 -679 -86 -97 c-384 -431 -598 -913 -653
-1476 -14 -139 -14 -1163 -1 -1311 44 -483 234 -949 546 -1345 100 -125 324
-344 456 -443 323 -243 711 -418 1098 -497 354 -72 782 -72 1119 1 401 87 805
276 1107 518 485 389 810 920 929 1513 36 181 45 355 45 913 0 707 -16 849
-137 1219 -26 82 -48 134 -53 127 -5 -9 -9 -6 -13 8 -3 12 -1 18 4 15 10 -6
-22 81 -46 125 -13 23 -14 24 -15 6 0 -12 5 -26 12 -33 7 -7 9 -12 5 -12 -4 0
-2 -10 4 -22 16 -29 18 -68 7 -90 -6 -12 -5 -18 2 -18 6 0 8 -5 4 -11 -3 -6 5
-3 20 6 32 21 34 10 2 -20 -15 -14 -34 -21 -55 -19 -24 1 -31 -2 -27 -11 3 -8
-2 -19 -10 -26 -8 -7 -12 -20 -8 -31 3 -12 1 -18 -7 -16 -7 2 -15 -6 -17 -17
-2 -11 -10 -23 -18 -28 -7 -4 -11 -14 -7 -22 3 -9 1 -21 -5 -28 -5 -6 -12 -28
-16 -49 -6 -35 -27 -54 -54 -49 -8 1 -16 -7 -19 -18 -3 -14 -14 -21 -29 -21
-21 0 -24 -5 -24 -40 0 -35 -3 -40 -24 -40 -21 0 -25 6 -31 46 l-6 46 -49 -7
c-42 -6 -49 -4 -53 12 -4 15 -5 15 -6 2 0 -9 -7 -19 -15 -22 -10 -4 -12 0 -9
14 6 21 -12 27 -20 7 -3 -7 -6 -2 -6 11 -1 19 -4 21 -15 12 -10 -9 -16 -9 -21
-1 -4 6 -4 14 -1 17 3 4 6 0 7 -8 0 -8 4 -3 10 9 11 30 4 42 -21 37 -32 -6
-23 11 13 23 28 10 29 11 4 6 -21 -3 -27 -1 -22 8 4 7 -1 4 -10 -7 -16 -19
-16 -19 -9 10 9 40 12 42 27 20 10 -13 14 -14 14 -3 0 7 -11 22 -23 31 -19 15
-23 15 -18 2 3 -8 1 -15 -5 -15 -6 0 -11 5 -11 11 0 5 -4 7 -10 4 -5 -3 -10
-2 -10 4 0 5 7 14 17 19 13 8 11 10 -10 10 -34 0 -34 -12 1 -45 15 -15 21 -23
15 -19 -18 10 -16 2 15 -87 16 -43 32 -74 37 -70 4 4 5 3 1 -4 -3 -6 5 -56 19
-110 45 -173 55 -320 55 -856 0 -279 -5 -529 -11 -585 -87 -790 -663 -1455
-1440 -1661 -207 -55 -292 -65 -544 -65 -219 0 -237 2 -380 32 -498 104 -888
345 -1205 742 -138 173 -247 388 -315 622 -70 241 -70 236 -70 918 0 652 0
659 51 860 133 536 498 987 1009 1249 245 126 485 193 787 220 83 7 103 12
145 39 44 29 90 69 119 105 26 31 49 124 48 197 0 126 -65 235 -171 286 -52
26 -66 28 -154 26 -177 -4 -405 -42 -624 -103 -106 -30 -365 -128 -445 -169
-22 -11 -44 -20 -50 -20 -8 0 -10 146 -8 518 l4 517 27 92 c148 513 633 888
1177 910 365 15 694 -105 954 -348 196 -183 303 -366 367 -628 48 -194 82
-246 197 -299 43 -19 69 -24 133 -24 175 2 295 108 307 272 12 177 -114 535
-277 780 -295 446 -764 749 -1291 835 -116 19 -424 27 -540 15z m2630 -4106
c0 -25 24 -34 33 -11 4 9 6 9 6 0 1 -7 -8 -17 -18 -23 -16 -8 -21 -6 -27 13
-11 32 -12 57 -2 51 4 -3 8 -16 8 -30z m50 20 c0 -8 -5 -12 -10 -9 -6 4 -8 11
-5 16 9 14 15 11 15 -7z m-533 -311 c-3 -10 -5 -4 -5 12 0 17 2 24 5 18 2 -7
2 -21 0 -30z m53 7 c0 -5 -5 -10 -11 -10 -5 0 -7 5 -4 10 3 6 8 10 11 10 2 0
4 -4 4 -10z m61 -7 c1 -10 1 -21 0 -25 0 -5 8 -8 20 -8 19 0 49 -21 49 -35 0
-3 -24 -5 -53 -4 l-54 2 3 33 c1 18 5 38 9 44 10 16 25 12 26 -7z m9 -133 c0
-5 -9 -10 -20 -10 -11 0 -20 5 -20 10 0 6 9 10 20 10 11 0 20 -4 20 -10z"/>
<path d="M6403 9313 c9 -2 23 -2 30 0 6 3 -1 5 -18 5 -16 0 -22 -2 -12 -5z"/>
<path d="M8623 8662 c1 -14 5 -18 11 -12 7 7 6 14 -1 21 -9 9 -12 7 -10 -9z"/>
<path d="M8636 8631 c-4 -6 -2 -11 4 -11 6 0 8 -5 5 -11 -4 -6 -14 -8 -24 -4
-13 5 -13 4 -4 -6 10 -10 10 -16 1 -28 -10 -13 -10 -14 2 -3 30 26 74 6 50
-23 -15 -17 -30 -20 -30 -4 0 5 5 7 10 4 6 -3 10 1 10 11 0 13 -3 14 -15 4 -8
-7 -15 -18 -15 -26 0 -24 21 -26 45 -4 23 22 23 24 7 45 -10 13 -23 20 -32 17
-13 -5 -13 -3 -1 12 10 12 11 20 4 27 -8 8 -13 7 -17 0z"/>
<path d="M8680 8525 c-6 -8 -9 -19 -6 -24 4 -5 3 -12 -2 -15 -5 -3 -7 -19 -4
-35 2 -17 8 -28 13 -25 5 3 6 16 3 29 -3 12 -1 26 4 29 6 4 10 -13 8 -44 -1
-27 -1 -50 0 -50 9 0 30 60 23 67 -4 4 -9 25 -11 46 -2 40 -9 45 -28 22z"/>
<path d="M8630 8420 c0 -5 7 -10 16 -10 8 0 12 5 9 10 -3 6 -10 10 -16 10 -5
0 -9 -4 -9 -10z"/>
<path d="M8718 8400 c-3 -19 -1 -38 4 -41 5 -3 9 -9 9 -13 -1 -3 1 -6 4 -6 3
0 8 0 12 0 4 0 2 5 -4 11 -6 6 -9 17 -7 23 3 7 1 23 -4 36 -9 23 -9 23 -14
-10z"/>
<path d="M6140 8369 c-198 -51 -377 -195 -468 -375 -54 -106 -67 -171 -67
-324 1 -135 3 -150 29 -220 61 -161 160 -288 293 -378 34 -23 64 -45 67 -50 2
-4 -17 -127 -44 -272 -116 -633 -200 -1107 -200 -1127 0 -47 32 -63 123 -63
52 0 77 4 68 9 -12 8 -10 36 14 185 15 97 31 178 34 180 3 2 184 1 401 -3
l395 -6 2 -25 2 -25 -8 25 c-8 23 -9 24 -10 3 -1 -12 -6 -25 -11 -28 -8 -5 -7
-11 1 -21 10 -12 9 -13 -6 -8 -12 5 -16 4 -12 -3 4 -6 0 -13 -8 -17 -17 -6
-21 -36 -5 -36 6 0 2 -10 -10 -22 -12 -13 -16 -24 -10 -28 6 -4 2 -14 -10 -25
-11 -10 -20 -26 -20 -37 0 -11 -7 -18 -18 -18 -10 0 -24 -8 -31 -19 -10 -13
-24 -17 -53 -16 -26 2 -35 -1 -27 -6 9 -6 1 -9 -26 -10 l-40 -2 45 -7 c41 -6
38 -7 -30 -9 -49 -1 -70 -4 -61 -10 11 -7 7 -10 -15 -14 -16 -2 75 -5 201 -5
222 -2 265 3 251 27 -5 7 -2 10 6 9 19 -4 15 45 -16 213 -14 79 -47 259 -72
399 -25 140 -67 370 -93 510 -27 140 -51 267 -54 282 -4 25 3 32 69 73 211
132 349 404 329 648 -9 107 -28 178 -75 272 -93 189 -272 333 -473 380 -90 21
-264 19 -357 -6z m437 -2795 c-3 -3 -12 -4 -19 -1 -8 3 -5 6 6 6 11 1 17 -2
13 -5z"/>
<path d="M8665 8360 c3 -5 8 -10 11 -10 2 0 4 5 4 10 0 6 -5 10 -11 10 -5 0
-7 -4 -4 -10z"/>
<path d="M8620 8278 c0 -11 57 -10 65 2 3 5 -9 9 -30 8 -19 -1 -35 -5 -35 -10z"/>
<path d="M8650 8215 c0 -8 2 -15 4 -15 2 0 6 7 10 15 3 8 1 15 -4 15 -6 0 -10
-7 -10 -15z"/>
<path d="M8270 8054 c0 -8 5 -12 10 -9 6 3 10 10 10 16 0 5 -4 9 -10 9 -5 0
-10 -7 -10 -16z"/>
<path d="M6005 5570 c-45 -6 -41 -7 35 -8 58 -1 80 1 70 8 -16 10 -29 10 -105
0z"/>
<path d="M6218 5563 c34 -2 88 -2 120 0 31 2 3 3 -63 3 -66 0 -92 -1 -57 -3z"/>
<path d="M2110 1287 c0 -5 204 -532 303 -782 41 -104 93 -238 116 -297 l43
-108 126 0 127 1 94 237 c210 533 334 850 351 900 l19 52 -130 0 c-71 0 -129
-2 -129 -4 0 -2 -39 -109 -86 -237 -47 -129 -117 -322 -156 -429 -38 -107 -72
-203 -76 -213 -5 -12 -17 10 -39 75 -18 51 -92 254 -165 450 l-133 358 -132 0
c-73 0 -133 -2 -133 -3z"/>
<path d="M3565 973 c-133 -18 -268 -111 -326 -225 -71 -139 -65 -336 14 -471
31 -53 101 -118 156 -146 125 -64 318 -66 448 -5 55 26 153 108 153 128 0 12
-77 66 -124 87 -23 11 -30 9 -54 -13 -42 -39 -89 -60 -153 -65 -73 -7 -136 10
-182 48 -38 31 -77 101 -77 137 l0 22 320 0 320 0 0 68 c0 229 -136 397 -350
431 -65 11 -89 11 -145 4z m143 -178 c20 -9 48 -26 61 -38 28 -26 60 -92 61
-124 l0 -23 -205 0 c-226 0 -219 -2 -192 63 47 111 170 165 275 122z"/>
<path d="M5180 970 c-267 -42 -423 -260 -376 -527 39 -225 207 -363 443 -363
198 0 344 81 418 233 45 93 59 184 45 286 -19 138 -83 241 -188 305 -101 60
-224 84 -342 66z m189 -213 c73 -49 103 -120 103 -245 -1 -99 -35 -171 -100
-213 -89 -56 -182 -48 -256 24 -57 54 -80 129 -74 231 7 104 51 177 133 221
47 25 142 16 194 -18z"/>
<path d="M6183 965 c-137 -30 -267 -135 -314 -252 -21 -50 -24 -75 -24 -188 0
-159 18 -211 99 -301 98 -108 207 -149 375 -142 132 6 196 29 290 104 76 61
80 67 116 179 24 73 26 89 20 185 -7 112 -22 171 -60 236 -86 147 -300 223
-502 179z m220 -205 c77 -49 109 -119 109 -240 0 -128 -69 -227 -176 -251 -70
-15 -125 1 -181 52 -55 51 -75 107 -75 211 0 161 80 257 216 258 50 0 68 -5
107 -30z"/>
<path d="M4563 958 c-34 -11 -97 -65 -125 -108 -17 -25 -17 -24 -17 43 l-1 67
-110 0 -110 0 0 -430 0 -430 120 0 120 0 0 265 c0 291 1 299 60 349 40 33 101
49 167 44 l53 -5 0 109 0 108 -62 -1 c-35 -1 -78 -6 -95 -11z"/>
</g>
</svg>
