<?xml version="1.0" standalone="no"?>
<!DOCTYPE svg PUBLIC "-//W3C//DTD SVG 20010904//EN"
 "http://www.w3.org/TR/2001/REC-SVG-20010904/DTD/svg10.dtd">
<svg version="1.0" xmlns="http://www.w3.org/2000/svg"
 width="72.000000pt" height="65.000000pt" viewBox="0 0 72.000000 65.000000"
 preserveAspectRatio="xMidYMid meet">

<g transform="translate(0.000000,65.000000) scale(0.100000,-0.100000)"
fill="#000000" stroke="none">
<path d="M161 617 c-41 -21 -64 -62 -69 -124 -3 -31 -13 -71 -23 -88 -26 -42
-26 -157 0 -205 53 -101 213 -106 279 -10 18 27 22 46 21 104 0 39 -4 80 -9
91 -8 19 -9 19 -9 -3 -1 -13 -4 -21 -8 -19 -5 3 -8 -23 -9 -57 0 -42 -7 -71
-19 -89 -35 -54 -107 -72 -165 -42 -47 24 -60 52 -60 126 0 58 4 72 25 97 14
17 43 36 65 44 51 17 47 33 -7 32 -43 0 -43 0 -43 36 0 73 83 109 136 59 13
-12 24 -28 24 -35 0 -18 20 -28 32 -16 17 17 -20 79 -57 96 -40 19 -72 20
-104 3z"/>
<path d="M182 378 c-15 -15 -16 -55 -2 -63 7 -4 9 -26 5 -53 -3 -26 -2 -42 1
-35 4 9 13 9 31 2 26 -9 26 -9 20 32 -4 28 -1 49 9 63 12 19 12 25 -2 44 -17
24 -43 29 -62 10z"/>
<path d="M430 337 c0 -15 23 -67 30 -67 10 0 32 61 25 69 -3 3 -8 -5 -12 -17
-6 -25 -23 -30 -23 -8 0 8 -4 18 -10 21 -5 3 -10 4 -10 2z"/>
<path d="M500 315 c-16 -19 -5 -47 16 -43 21 4 28 44 10 51 -8 3 -20 -1 -26
-8z m26 -20 c1 -8 -2 -15 -7 -15 -5 0 -9 10 -9 22 0 23 12 17 16 -7z"/>
<path d="M600 315 c-15 -18 -6 -45 13 -45 8 0 20 7 27 15 10 12 10 18 0 30
-16 19 -24 19 -40 0z m30 -20 c0 -8 -4 -15 -9 -15 -13 0 -22 16 -14 24 11 11
23 6 23 -9z"/>
<path d="M671 320 c-19 -11 -9 -45 14 -45 13 0 21 8 23 21 3 23 -17 37 -37 24z
m21 -32 c-15 -15 -26 -4 -18 18 5 13 9 15 18 6 9 -9 9 -15 0 -24z"/>
<path d="M550 295 c0 -14 4 -25 9 -25 5 0 11 11 13 25 4 17 1 25 -8 25 -8 0
-14 -11 -14 -25z"/>
</g>
</svg>
