<?xml version="1.0" encoding="UTF-8"?>
<svg version="1.1" xmlns="http://www.w3.org/2000/svg" width="352" height="312">
<path d="M0 0 C116.16 0 232.32 0 352 0 C352 102.96 352 205.92 352 312 C235.84 312 119.68 312 0 312 C0 209.04 0 106.08 0 0 Z " fill="#EEEFEF" transform="translate(0,0)"/>
<path d="M0 0 C39.27 0 78.54 0 119 0 C119 71.61 119 143.22 119 217 C32.54 217 -53.92 217 -143 217 C-143 204.13 -143 191.26 -143 178 C-95.81 178 -48.62 178 0 178 C0 142.69 0 107.38 0 71 C31.35 71 62.7 71 95 71 C95 55.82 95 40.64 95 25 C63.65 25 32.3 25 0 25 C0 16.75 0 8.5 0 0 Z " fill="#FEFEFE" transform="translate(233,95)"/>
<path d="M0 0 C9.25215145 7.91465713 16.32078196 18.04371813 18.8203125 30.171875 C19.00732554 33.17698102 18.45724298 34.86124067 16.80859375 37.3671875 C13.54269947 39.54445035 11.29125509 39.9921875 7.37109375 39.9921875 C4.68359375 38.8046875 4.68359375 38.8046875 2.37109375 35.9921875 C1.27833536 33.03913804 0.37629162 30.05272078 -0.53515625 27.0390625 C-3.06547763 19.99031008 -8.09688846 14.26634751 -14.80078125 10.90234375 C-24.07576891 6.64373014 -33.87978945 4.96525692 -43.81640625 8.4296875 C-52.71912257 12.57655536 -58.76196389 18.83744085 -62.62719727 27.79321289 C-64.46635988 33.66660985 -64.4128979 39.56939818 -64.44140625 45.6796875 C-64.46654297 46.96552734 -64.49167969 48.25136719 -64.51757812 49.57617188 C-64.57592349 52.71515245 -64.61259003 55.85275517 -64.62890625 58.9921875 C-63.90445313 58.65227783 -63.18 58.31236816 -62.43359375 57.9621582 C-44.17148561 49.50528029 -25.64494248 48.31377466 -6.62109375 55.05859375 C10.66269928 61.755511 24.08782089 73.25659539 32.37109375 89.9921875 C36.27893377 99.42171779 38.50240494 108.66277036 38.609375 118.890625 C38.61744675 119.64324615 38.62551849 120.39586731 38.63383484 121.17129517 C38.6476138 122.76309962 38.65836339 124.35493284 38.66625977 125.94677734 C38.67768819 127.54257132 38.69799201 129.13832991 38.7277832 130.73388672 C39.14566354 153.18736779 33.21901402 171.50062754 17.62109375 188.1171875 C4.06954401 201.22570581 -14.86360422 207.59641192 -33.52636719 207.40942383 C-53.04787408 206.66599306 -70.38202853 198.1113711 -83.62890625 183.9921875 C-95.18850258 171.32651348 -100.7273604 155.25343253 -100.83203125 138.2421875 C-100.83773132 137.50701904 -100.8434314 136.77185059 -100.8493042 136.0144043 C-100.85871236 134.46127744 -100.86527145 132.908131 -100.86914062 131.35498047 C-100.87876384 129.0266431 -100.90979153 126.69922142 -100.94140625 124.37109375 C-101.03194017 111.91475478 -99.90409775 99.92373374 -93.94140625 88.7421875 C-93.64041016 88.12601562 -93.33941406 87.50984375 -93.02929688 86.875 C-91.47737505 83.852018 -90.06507988 81.41345638 -87.59985352 79.0324707 C-81.13952955 72.58650141 -80.83357464 66.98302702 -80.79115295 58.29428101 C-80.81479246 55.42165555 -80.87348239 52.55158581 -80.94140625 49.6796875 C-81.28041213 31.05013195 -80.06435676 17.93441135 -66.6015625 3.875 C-48.55070991 -13.4250938 -20.07295012 -15.3306038 0 0 Z " fill="#DBDDDE" transform="translate(119.62890625,18.0078125)"/>
<path d="M0 0 C9.25215145 7.91465713 16.32078196 18.04371813 18.8203125 30.171875 C19.00732554 33.17698102 18.45724298 34.86124067 16.80859375 37.3671875 C13.54269947 39.54445035 11.29125509 39.9921875 7.37109375 39.9921875 C4.68359375 38.8046875 4.68359375 38.8046875 2.37109375 35.9921875 C1.27833536 33.03913804 0.37629162 30.05272078 -0.53515625 27.0390625 C-3.06547763 19.99031008 -8.09688846 14.26634751 -14.80078125 10.90234375 C-24.07576891 6.64373014 -33.87978945 4.96525692 -43.81640625 8.4296875 C-52.71912257 12.57655536 -58.76196389 18.83744085 -62.62719727 27.79321289 C-64.46635988 33.66660985 -64.4128979 39.56939818 -64.44140625 45.6796875 C-64.46654297 46.96552734 -64.49167969 48.25136719 -64.51757812 49.57617188 C-64.57592349 52.71515245 -64.61259003 55.85275517 -64.62890625 58.9921875 C-63.9124292 58.65227783 -63.19595215 58.31236816 -62.45776367 57.9621582 C-53.06062399 53.58239596 -43.16272465 49.8635641 -32.62890625 50.9921875 C-28.05946181 53.13107639 -28.05946181 53.13107639 -26.62890625 55.9921875 C-26.15014249 60.22126741 -26.02227311 62.22073328 -28.69921875 65.625 C-32.18098728 68.43826897 -34.48071473 68.90762846 -38.87890625 69.5546875 C-49.0221933 71.26816358 -56.31012791 75.05486335 -64.62890625 80.9921875 C-65.49515625 81.5696875 -66.36140625 82.1471875 -67.25390625 82.7421875 C-75.45146673 90.50829743 -81.2629836 101.55562027 -81.82177734 112.91186523 C-81.91181605 117.16392179 -81.95098207 121.41679659 -81.97900391 125.66967773 C-81.99546127 127.49370168 -82.02261396 129.31766392 -82.06103516 131.14135742 C-82.40350218 147.51574813 -80.05644701 160.89004633 -68.4453125 173.33203125 C-56.9841051 184.35312828 -44.34295845 188.45634697 -28.75830078 188.42382812 C-14.69702912 188.12117274 -3.78763868 182.68647596 6.4296875 173.05078125 C13.9594332 165.0352455 16.93437909 155.84638139 19.28125 145.3125 C20.44563321 141.76509595 21.39923542 140.2101553 24.37109375 137.9921875 C28.88385551 137.41913839 31.2313745 137.49356033 35.37109375 139.3046875 C38.64619318 143.70560236 38.14004996 147.70481918 37.37109375 152.9921875 C33.32296937 170.65673026 23.11666382 185.68085754 7.99609375 195.8046875 C-8.88877913 205.86930317 -28.3315532 210.04607938 -47.62890625 205.4921875 C-66.61299856 200.44466332 -82.33233287 189.28509945 -92.27734375 172.15234375 C-97.95861676 161.38563855 -100.75715784 150.41071387 -100.83203125 138.2421875 C-100.83773132 137.50701904 -100.8434314 136.77185059 -100.8493042 136.0144043 C-100.85871236 134.46127744 -100.86527145 132.908131 -100.86914062 131.35498047 C-100.87876384 129.0266431 -100.90979153 126.69922142 -100.94140625 124.37109375 C-101.03194017 111.91475478 -99.90409775 99.92373374 -93.94140625 88.7421875 C-93.64041016 88.12601562 -93.33941406 87.50984375 -93.02929688 86.875 C-91.47737505 83.852018 -90.06507988 81.41345638 -87.59985352 79.0324707 C-81.13952955 72.58650141 -80.83357464 66.98302702 -80.79115295 58.29428101 C-80.81479246 55.42165555 -80.87348239 52.55158581 -80.94140625 49.6796875 C-81.28041213 31.05013195 -80.06435676 17.93441135 -66.6015625 3.875 C-48.55070991 -13.4250938 -20.07295012 -15.3306038 0 0 Z " fill="#48494B" transform="translate(119.62890625,18.0078125)"/>
<path d="M0 0 C17.91250996 -0.95204285 35.27169382 5.82950267 48.8515625 17.4375 C61.75755461 29.66797186 70.59946076 45.93719655 71.11352539 63.98583984 C71.11336897 65.47754843 71.10783348 66.96926362 71.09765625 68.4609375 C71.0962413 69.25150543 71.09482635 70.04207336 71.09336853 70.8565979 C71.08780504 73.36277166 71.07525944 75.86885358 71.0625 78.375 C71.05748028 80.08202995 71.0529182 81.78906132 71.04882812 83.49609375 C71.03784759 87.66409748 71.02060839 91.83203321 71 96 C70.67 96 70.34 96 70 96 C69.731875 95.05125 69.46375 94.1025 69.1875 93.125 C68.25013412 89.74732727 68.25013412 89.74732727 65 88 C59.45566136 87.55997312 57.38539362 87.54073565 53 91 C52.9906543 90.0934668 52.98130859 89.18693359 52.97167969 88.25292969 C52.9271871 84.8304904 52.86536698 81.40921378 52.79248047 77.98730469 C52.76457023 76.51736529 52.74320971 75.04728415 52.72900391 73.57714844 C52.56483613 57.53248429 48.86910353 44.21299814 37.6875 32.1875 C27.34808775 22.5404591 14.73399466 18.63602444 1 17 C1.65097656 16.24976562 2.30195312 15.49953125 2.97265625 14.7265625 C5.57238959 11.23019666 5.55297243 9.26578735 5 5 C3.72840348 3.14397385 3.72840348 3.14397385 2 2 C1.34 1.34 0.68 0.68 0 0 Z " fill="#05A5DB" transform="translate(87,69)"/>
<path d="M0 0 C4.75130862 2.71367326 7.68046951 6.56433329 9.8125 11.5625 C10.96081193 17.78805889 9.95035898 23.04419627 6.8125 28.5625 C4.25 31.5 4.25 31.5 1.8125 33.5625 C1.1525 33.5625 0.4925 33.5625 -0.1875 33.5625 C1.4625 43.1325 3.1125 52.7025 4.8125 62.5625 C-4.0975 62.5625 -13.0075 62.5625 -22.1875 62.5625 C-21.754375 58.97375 -21.754375 58.97375 -21.3125 55.3125 C-21.1734021 54.13095337 -21.1734021 54.13095337 -21.03149414 52.92553711 C-20.49356978 48.50752009 -19.7006992 44.22648603 -18.75 39.875 C-18.18881872 37.07286277 -18.18881872 37.07286277 -18.1875 34.5625 C-20.1875 31.5625 -20.1875 31.5625 -23.1875 29.5625 C-27.50370688 24.77967616 -27.80465444 20.67857375 -27.56640625 14.46875 C-26.91902846 9.50329558 -25.33437616 6.43125812 -21.46875 3.06640625 C-14.91951075 -1.83164768 -7.72751623 -3.26933379 0 0 Z " fill="#3A3B3D" transform="translate(97.1875,111.4375)"/>
<path d="M0 0 C3.91475809 0.02542051 5.44718853 0.13081312 8.875 2.1875 C12.17295165 5.92517854 12.14056214 8.91181266 12.10546875 13.76171875 C11.5278449 17.9066459 9.81536529 19.53228497 6.75 22.3125 C2.1704371 23.83902097 -1.89321319 24.3934323 -6.328125 22.359375 C-9.46022554 20.14398681 -10.9948365 18.43129383 -11.859375 14.640625 C-12.0995404 9.70389183 -11.90705223 7.15487466 -8.8125 3.1875 C-7.966875 2.56875 -7.12125 1.95 -6.25 1.3125 C-4.53310511 -0.40439489 -2.34121863 0.05946946 0 0 Z " fill="#343434" transform="translate(286.25,136.6875)"/>
<path d="M0 0 C3.91475809 0.02542051 5.44718853 0.13081312 8.875 2.1875 C12.17295165 5.92517854 12.14056214 8.91181266 12.10546875 13.76171875 C11.5278449 17.9066459 9.81536529 19.53228497 6.75 22.3125 C2.1704371 23.83902097 -1.89321319 24.3934323 -6.328125 22.359375 C-9.46022554 20.14398681 -10.9948365 18.43129383 -11.859375 14.640625 C-12.0995404 9.70389183 -11.90705223 7.15487466 -8.8125 3.1875 C-7.966875 2.56875 -7.12125 1.95 -6.25 1.3125 C-4.53310511 -0.40439489 -2.34121863 0.05946946 0 0 Z " fill="#343434" transform="translate(259.25,136.6875)"/>
<path d="M0 0 C3.91475809 0.02542051 5.44718853 0.13081312 8.875 2.1875 C12.17295165 5.92517854 12.14056214 8.91181266 12.10546875 13.76171875 C11.5278449 17.9066459 9.81536529 19.53228497 6.75 22.3125 C3.02099684 23.55550105 -0.38349214 23.9836674 -4.25 23.3125 C-7.27391552 21.57342412 -9.66748661 19.47752678 -11.25 16.3125 C-11.66948626 12.9266466 -11.74414522 9.69181569 -11.25 6.3125 C-8.8125 3.25 -8.8125 3.25 -6.25 1.3125 C-4.53310511 -0.40439489 -2.34121863 0.05946946 0 0 Z " fill="#343434" transform="translate(313.25,136.6875)"/>
<path d="M0 0 C2.31 0 4.62 0 7 0 C8.17495143 2.93425371 9.33850852 5.87289513 10.5 8.8125 C10.83386719 9.64587891 11.16773438 10.47925781 11.51171875 11.33789062 C11.82753906 12.14033203 12.14335937 12.94277344 12.46875 13.76953125 C12.76201172 14.50792236 13.05527344 15.24631348 13.35742188 16.00708008 C14 18 14 18 14 21 C14.66 21 15.32 21 16 21 C16.17015625 20.32195312 16.3403125 19.64390625 16.515625 18.9453125 C18.219386 12.40214525 20.34366811 6.21608631 23 0 C25.31 0 27.62 0 30 0 C27.88685027 6.61191837 25.46722928 13.06215584 22.875 19.5 C22.51535156 20.40492188 22.15570313 21.30984375 21.78515625 22.2421875 C21.44097656 23.10070312 21.09679687 23.95921875 20.7421875 24.84375 C20.4313623 25.61912109 20.12053711 26.39449219 19.80029297 27.19335938 C19 29 19 29 18 30 C15.66702567 30.04092937 13.33294775 30.04241723 11 30 C9.42909098 26.05069826 7.86262833 22.09967146 6.30029297 18.14697266 C5.7679894 16.80208609 5.23446596 15.45768168 4.69970703 14.11376953 C3.93201919 12.18386783 3.1687107 10.25228427 2.40625 8.3203125 C1.94541016 7.15773926 1.48457031 5.99516602 1.00976562 4.79736328 C0 2 0 2 0 0 Z " fill="#363736" transform="translate(178,129)"/>
<path d="M0 0 C3.73290476 0.02670175 5.0381884 0.18281943 8.3125 2.1875 C12.05608479 6.29336719 11.25 6.78413523 11.25 13.3125 C5.97 13.3125 0.69 13.3125 -4.75 13.3125 C-4.42 14.3025 -4.09 15.2925 -3.75 16.3125 C0.04359325 18.20929663 4.29395608 17.52974428 8.25 16.3125 C8.91 17.3025 9.57 18.2925 10.25 19.3125 C7.06416017 22.97621581 4.59243264 23.16334082 -0.125 23.6875 C-4.96339688 23.18697618 -6.35360084 21.70889916 -9.75 18.3125 C-11.60598295 14.60053409 -11.34092637 10.35367386 -10.75 6.3125 C-8.3125 3.25 -8.3125 3.25 -5.75 1.3125 C-4.10962605 -0.32787395 -2.25523159 0.06338669 0 0 Z " fill="#363636" transform="translate(216.75,136.6875)"/>
<path d="M0 0 C8.91 0 17.82 0 27 0 C28 3 28 3 28 10 C18.43 10 8.86 10 -1 10 C-2 5 -2 5 0 0 Z " fill="#03A3D5" transform="translate(75,174)"/>
<path d="M0 0 C0.94447998 -0.00315216 1.88895996 -0.00630432 2.86206055 -0.009552 C4.37473511 -0.00651566 4.37473511 -0.00651566 5.91796875 -0.00341797 C7.48768433 -0.00485306 7.48768433 -0.00485306 9.08911133 -0.00631714 C11.29801494 -0.00699656 13.50692056 -0.00515887 15.71582031 -0.00097656 C19.09314466 0.004375 22.47033603 -0.00092964 25.84765625 -0.00732422 C27.99609404 -0.0066634 30.14453175 -0.00538215 32.29296875 -0.00341797 C33.30141846 -0.0054422 34.30986816 -0.00746643 35.34887695 -0.009552 C36.29335693 -0.00639984 37.23783691 -0.00324768 38.2109375 0 C39.03746826 0.00079559 39.86399902 0.00159119 40.71557617 0.00241089 C43.25829211 0.13751459 45.62362907 0.57296895 48.10546875 1.12939453 C46.10546875 4.12939453 46.10546875 4.12939453 43.10546875 5.12939453 C41.56649662 5.22107385 40.02387747 5.25729735 38.48217773 5.25878906 C37.54788437 5.26194122 36.613591 5.26509338 35.65098572 5.26834106 C34.64467606 5.26631683 33.63836639 5.2642926 32.6015625 5.26220703 C31.05022362 5.26364212 31.05022362 5.26364212 29.46754456 5.2651062 C27.28117817 5.26578681 25.09480977 5.26394083 22.90844727 5.25976562 C19.55285125 5.2544103 16.19738875 5.25971746 12.84179688 5.26611328 C10.72005179 5.26545259 8.59830678 5.2641716 6.4765625 5.26220703 C5.46822861 5.26423126 4.45989471 5.26625549 3.42100525 5.26834106 C2.48986404 5.2651889 1.55872284 5.26203674 0.59936523 5.25878906 C-0.22209488 5.25799347 -1.04355499 5.25719788 -1.88990784 5.25637817 C-3.89453125 5.12939453 -3.89453125 5.12939453 -5.89453125 4.12939453 C-5.89453125 3.46939453 -5.89453125 2.80939453 -5.89453125 2.12939453 C-7.21453125 1.79939453 -8.53453125 1.46939453 -9.89453125 1.12939453 C-6.53841402 0.37695693 -3.437023 0.00330837 0 0 Z " fill="#C2C3C4" transform="translate(67.89453125,256.87060546875)"/>
<path d="M0 0 C0.70646164 -0.00335861 1.41292328 -0.00671722 2.14079285 -0.01017761 C4.45895173 -0.01962054 6.77703797 -0.02162689 9.09521484 -0.02270508 C10.71373524 -0.02592066 12.33225535 -0.02928496 13.95077515 -0.03279114 C17.33486607 -0.03876454 20.71893152 -0.04063272 24.10302734 -0.04003906 C28.43856722 -0.03993717 32.77394435 -0.05362549 37.10944557 -0.07081127 C40.4483007 -0.08192531 43.78711627 -0.08395851 47.12598801 -0.08342934 C48.72477152 -0.08460896 50.32355607 -0.08902975 51.92232132 -0.0967617 C54.15536233 -0.10655611 56.38804704 -0.10368663 58.62109375 -0.09765625 C59.89095123 -0.09908127 61.16080872 -0.10050629 62.46914673 -0.10197449 C65.48292234 0.13000529 67.15838363 0.55137586 69.68115234 2.14526367 C61.56693303 4.21118584 53.77309199 4.42269302 45.43115234 4.37573242 C44.08260136 4.37453747 42.73404953 4.37408812 41.38549805 4.37434387 C38.58181427 4.37279172 35.77826049 4.3645937 32.97460938 4.35107422 C29.37888162 4.33395415 25.78329428 4.33026432 22.18753052 4.3310194 C19.4132147 4.33074804 16.63892963 4.32527448 13.86462402 4.31801796 C11.89363986 4.31329233 9.92264926 4.31155708 7.95166016 4.30986023 C6.76282227 4.30348038 5.57398437 4.29710052 4.34912109 4.29052734 C3.30006592 4.28671555 2.25101074 4.28290375 1.17016602 4.27897644 C-1.31884766 4.14526367 -1.31884766 4.14526367 -3.31884766 3.14526367 C-5.02248587 2.91904286 -6.73213466 2.73637894 -8.44384766 2.58276367 C-9.35392578 2.49897461 -10.26400391 2.41518555 -11.20166016 2.32885742 C-11.90033203 2.26827148 -12.59900391 2.20768555 -13.31884766 2.14526367 C-13.31884766 1.81526367 -13.31884766 1.48526367 -13.31884766 1.14526367 C-8.82750686 0.27807345 -4.57143262 0.01370514 0 0 Z " fill="#E0E2E1" transform="translate(61.31884765625,260.854736328125)"/>
<path d="M0 0 C1.24523437 -0.00386719 2.49046875 -0.00773438 3.7734375 -0.01171875 C9.63606709 -0.00546861 15.20206588 0.20370342 21 1.125 C25.3478156 1.3888303 29.70289947 1.51552945 34.05664062 1.64257812 C34.92095703 1.67673828 35.78527344 1.71089844 36.67578125 1.74609375 C37.8500769 1.78367798 37.8500769 1.78367798 39.0480957 1.82202148 C41 2.125 41 2.125 43 4.125 C40.813347 4.32213238 38.62560925 4.50724908 36.4375 4.6875 C35.21933594 4.79191406 34.00117187 4.89632813 32.74609375 5.00390625 C29 5.125 29 5.125 25.94506836 4.64086914 C20.98468819 3.99223474 16.12941298 3.98192523 11.1328125 3.9921875 C9.58157181 3.99075241 9.58157181 3.99075241 7.99899292 3.98928833 C5.81882669 3.9886101 3.6386584 3.99043939 1.45849609 3.99462891 C-1.85714314 3.99997123 -5.17264625 3.99467734 -8.48828125 3.98828125 C-10.61458363 3.98894231 -12.74088592 3.99022404 -14.8671875 3.9921875 C-16.33948318 3.98915115 -16.33948318 3.98915115 -17.84152222 3.98605347 C-22.97543252 4.00331114 -27.96874207 4.23816811 -33.05909729 4.92274475 C-36.0967624 5.23929009 -39.03038948 4.97475258 -42.0625 4.6875 C-43.18785156 4.58566406 -44.31320313 4.48382813 -45.47265625 4.37890625 C-46.72369141 4.25322266 -46.72369141 4.25322266 -48 4.125 C-44.70575644 1.92883763 -43.54764517 1.84800696 -39.703125 1.74609375 C-38.6615625 1.71193359 -37.62 1.67777344 -36.546875 1.64257812 C-34.91492188 1.60293945 -34.91492188 1.60293945 -33.25 1.5625 C-25.40309136 1.40746075 -25.40309136 1.40746075 -17.609375 0.60546875 C-11.7568524 -0.17360082 -5.89661949 -0.01831248 0 0 Z " fill="#DCDEDD" transform="translate(89,253.875)"/>
<path d="M0 0 C0.78503906 -0.00257812 1.57007812 -0.00515625 2.37890625 -0.0078125 C4.4375 0.125 4.4375 0.125 6.4375 1.125 C6.4375 1.785 6.4375 2.445 6.4375 3.125 C5.58478516 3.27195312 5.58478516 3.27195312 4.71484375 3.421875 C-2.22359236 4.76554543 -7.22490984 6.42778058 -12 11.9375 C-14.92785257 17.59386199 -13.8497024 24.92621479 -13.5625 31.125 C-17.71586215 27.10561728 -18.7368602 25.23210097 -18.875 19.4375 C-18.80560481 13.63606205 -18.17851991 10.6682045 -14.5625 6.125 C-10.02354613 2.17404697 -6.13100066 -0.02020099 0 0 Z " fill="#2A2B2D" transform="translate(88.5625,109.875)"/>
<path d="M0 0 C4.66666667 0 9.33333333 0 14 0 C14 1.65 14 3.3 14 5 C13.030625 5.309375 12.06125 5.61875 11.0625 5.9375 C8.15934208 6.69523342 8.15934208 6.69523342 7 8 C6.76472227 10.34987262 6.58613583 12.70556039 6.4375 15.0625 C6.35371094 16.35285156 6.26992187 17.64320313 6.18359375 18.97265625 C6.12300781 19.97167969 6.06242188 20.97070312 6 22 C4.02 22 2.04 22 0 22 C0 14.74 0 7.48 0 0 Z " fill="#303131" transform="translate(232,137)"/>
<path d="M0 0 C2.375 0.9375 2.375 0.9375 4.375 3.9375 C4.91007194 9.93030576 4.91007194 9.93030576 3.3125 12.9375 C0.18258074 14.5529422 -2.30674093 13.73634015 -5.625 12.9375 C-7.17086876 9.84576248 -6.91859521 7.34320448 -6.625 3.9375 C-4.57391465 0.89885504 -3.71650471 -0.08848821 0 0 Z " fill="#EDEDED" transform="translate(314.625,141.0625)"/>
<path d="M0 0 C2.375 0.9375 2.375 0.9375 4.375 3.9375 C4.92052912 10.04742617 4.92052912 10.04742617 3.1875 12.875 C0.71450907 14.32468434 -0.80384512 14.36067323 -3.625 13.9375 C-5.4375 12.875 -5.4375 12.875 -6.625 10.9375 C-7.13315187 6.9448782 -7.21538159 4.81213939 -4.9375 1.4375 C-2.625 -0.0625 -2.625 -0.0625 0 0 Z " fill="#EDEEEE" transform="translate(287.625,141.0625)"/>
<path d="M0 0 C2.375 0.9375 2.375 0.9375 4.375 3.9375 C4.92052912 10.04742617 4.92052912 10.04742617 3.1875 12.875 C0.71450907 14.32468434 -0.80384512 14.36067323 -3.625 13.9375 C-5.4375 12.875 -5.4375 12.875 -6.625 10.9375 C-7.13315187 6.9448782 -7.21538159 4.81213939 -4.9375 1.4375 C-2.625 -0.0625 -2.625 -0.0625 0 0 Z " fill="#ECEDED" transform="translate(260.625,141.0625)"/>
<path d="M0 0 C1.32 0.99 2.64 1.98 4 3 C2.07289294 19.8929385 2.07289294 19.8929385 0 27 C-1.65 27.33 -3.3 27.66 -5 28 C-1.92460882 1.92460882 -1.92460882 1.92460882 0 0 Z " fill="#292B2B" transform="translate(80,146)"/>
<path d="M0 0 C1.2538147 -0.0049926 1.2538147 -0.0049926 2.53295898 -0.01008606 C4.30158945 -0.01515232 6.07022948 -0.01749448 7.83886719 -0.01733398 C10.55159135 -0.01952245 13.26391023 -0.03768652 15.9765625 -0.05664062 C17.69270694 -0.05957415 19.40885331 -0.06155922 21.125 -0.0625 C21.93960693 -0.06968552 22.75421387 -0.07687103 23.59350586 -0.08427429 C29.33367354 -0.06085771 29.33367354 -0.06085771 31.5625 2.16796875 C30.5625 3.16796875 30.5625 3.16796875 26.77709961 3.28149414 C25.08967271 3.28133497 23.40224095 3.27563792 21.71484375 3.265625 C20.38520348 3.26350258 20.38520348 3.26350258 19.02870178 3.26133728 C16.18576746 3.2557209 13.34291069 3.24316566 10.5 3.23046875 C8.57747509 3.22545586 6.65494896 3.22089259 4.73242188 3.21679688 C0.00908451 3.20574616 -4.71419458 3.18847058 -9.4375 3.16796875 C-9.7675 2.50796875 -10.0975 1.84796875 -10.4375 1.16796875 C-7.1771056 -0.46222845 -3.5828944 0.00489454 0 0 Z " fill="#A4A6A7" transform="translate(79.4375,257.83203125)"/>
<path d="M0 0 C0.70646164 -0.00335861 1.41292328 -0.00671722 2.14079285 -0.01017761 C4.45895173 -0.01962054 6.77703797 -0.02162689 9.09521484 -0.02270508 C10.71373524 -0.02592066 12.33225535 -0.02928496 13.95077515 -0.03279114 C17.33486607 -0.03876454 20.71893152 -0.04063272 24.10302734 -0.04003906 C28.43856722 -0.03993717 32.77394435 -0.05362549 37.10944557 -0.07081127 C40.4483007 -0.08192531 43.78711627 -0.08395851 47.12598801 -0.08342934 C48.72477152 -0.08460896 50.32355607 -0.08902975 51.92232132 -0.0967617 C54.15536233 -0.10655611 56.38804704 -0.10368663 58.62109375 -0.09765625 C59.89095123 -0.09908127 61.16080872 -0.10050629 62.46914673 -0.10197449 C65.48292234 0.13000529 67.15838363 0.55137586 69.68115234 2.14526367 C65.416027 3.19967924 61.31589055 3.24638318 56.95336914 3.16699219 C56.1918605 3.15738464 55.43035187 3.1477771 54.64576721 3.13787842 C52.14053714 3.10502155 49.63548879 3.06463902 47.13037109 3.02416992 C45.38874442 2.99985578 43.64711111 2.97601287 41.9054718 2.95262146 C37.33023495 2.88990932 32.7551162 2.82080645 28.17999268 2.75036621 C23.50790771 2.67956629 18.83573929 2.61481917 14.16357422 2.54956055 C5.00267519 2.42071418 -4.15811048 2.28511533 -13.31884766 2.14526367 C-13.31884766 1.81526367 -13.31884766 1.48526367 -13.31884766 1.14526367 C-8.82750686 0.27807345 -4.57143262 0.01370514 0 0 Z " fill="#D3D5D4" transform="translate(61.31884765625,260.854736328125)"/>
<path d="M0 0 C1.32 0 2.64 0 4 0 C4.125 6.75 4.125 6.75 3 9 C11.25 9 19.5 9 28 9 C28 9.33 28 9.66 28 10 C18.43 10 8.86 10 -1 10 C-1.98484577 5.07577115 -2.03342293 4.18645898 0 0 Z " fill="#1390B8" transform="translate(75,174)"/>
<path d="M0 0 C3.63 0 7.26 0 11 0 C10.67 1.98 10.34 3.96 10 6 C9.34 6 8.68 6 8 6 C8 7.98 8 9.96 8 12 C7.01 12.495 7.01 12.495 6 13 C5.90203125 12.31292969 5.8040625 11.62585938 5.703125 10.91796875 C5.55359375 10.01691406 5.4040625 9.11585937 5.25 8.1875 C5.11078125 7.29417969 4.9715625 6.40085937 4.828125 5.48046875 C4.08477754 2.47106072 4.08477754 2.47106072 0 0 Z " fill="#0DADD9" transform="translate(87,69)"/>
<path d="M0 0 C1.26092972 0.00212242 1.26092972 0.00212242 2.54733276 0.00428772 C5.23732025 0.00989388 7.92722509 0.02244739 10.6171875 0.03515625 C12.43880088 0.04017046 14.26041557 0.0447335 16.08203125 0.04882812 C20.55211527 0.05986531 25.02213736 0.07713405 29.4921875 0.09765625 C29.4921875 0.42765625 29.4921875 0.75765625 29.4921875 1.09765625 C13.1571875 1.59265625 13.1571875 1.59265625 -3.5078125 2.09765625 C-3.5078125 2.42765625 -3.5078125 2.75765625 -3.5078125 3.09765625 C-5.4878125 3.09765625 -7.4678125 3.09765625 -9.5078125 3.09765625 C-9.8378125 2.43765625 -10.1678125 1.77765625 -10.5078125 1.09765625 C-7.22889325 -0.54180338 -3.60167716 -0.02264553 0 0 Z " fill="#B1B2B3" transform="translate(79.5078125,257.90234375)"/>
<path d="M0 0 C2 2 2 2 2 5 C-1.3 5 -4.6 5 -8 5 C-7.67 3.68 -7.34 2.36 -7 1 C-4.48718205 -0.25640898 -2.78302919 -0.20872719 0 0 Z " fill="#F2F2F2" transform="translate(220,141)"/>
<path d="M0 0 C1 3 1 3 0.0625 5.1875 C-0.4634375 6.0846875 -0.4634375 6.0846875 -1 7 C-3.31 7 -5.62 7 -8 7 C-5.42215154 4.35247996 -3.08351902 2.05567935 0 0 Z " fill="#05A0CE" transform="translate(96,79)"/>
<path d="M0 0 C2.31 0 4.62 0 7 0 C6.67 1.98 6.34 3.96 6 6 C5.34 5.67 4.68 5.34 4 5 C4 4.34 4 3.68 4 3 C2.68 2.34 1.36 1.68 0 1 C0 0.67 0 0.34 0 0 Z " fill="#1ECBF5" transform="translate(91,69)"/>
<path d="M0 0 C0.99 0.33 1.98 0.66 3 1 C2.38125 1.5775 1.7625 2.155 1.125 2.75 C-0.81347053 4.80249821 -1.90014249 6.43366582 -3 9 C-3.36923077 3.46153846 -3.36923077 3.46153846 -1.5 1.125 C-1.005 0.75375 -0.51 0.3825 0 0 Z " fill="#242D31" transform="translate(143,157)"/>
</svg>
